<?xml version="1.0" encoding="utf-8"?>
<!-- Generator: Adobe Illustrator 26.0.2, SVG Export Plug-In . SVG Version: 6.00 Build 0)  -->
<svg version="1.1" id="Warstwa_1" xmlns="http://www.w3.org/2000/svg" xmlns:xlink="http://www.w3.org/1999/xlink" x="0px" y="0px"
	 viewBox="0 0 136.29 202.33" style="enable-background:new 0 0 136.29 202.33;" xml:space="preserve">
<style type="text/css">
	.st0{fill:#82D9C9;}
	.st1{fill:#7D4E24;}
	.st2{fill:#66B5A5;}
	.st3{fill:#FFFFFF;}
	.st4{fill:#569989;}
	.st5{fill:url(#SVGID_1_);}
	.st6{fill:url(#SVGID_00000170992337284657652720000012643112774609457342_);}
	.st7{fill:url(#SVGID_00000052804572997746968400000014025631673709086857_);}
	.st8{fill:url(#SVGID_00000052798959956971284920000010585362164649164455_);}
	.st9{fill:url(#SVGID_00000123432031514304172500000009742749952999642271_);}
	.st10{fill:url(#SVGID_00000130631803499285953670000007900004517851415424_);}
	.st11{fill:url(#SVGID_00000022527550618946254660000009152725639004310437_);}
	.st12{fill:url(#SVGID_00000093878656881560967270000015124245240646101672_);}
	.st13{fill:url(#SVGID_00000028324754940056552000000009143339065286725542_);}
	.st14{fill:url(#SVGID_00000114796646500958021830000008647773815597511607_);}
	.st15{fill:url(#SVGID_00000027590874712245033990000014368095746736327052_);}
	.st16{fill:url(#SVGID_00000046326162524582865800000011937756649849088418_);}
	.st17{fill:url(#SVGID_00000005954839400593906430000010712083882766285474_);}
	.st18{fill:url(#SVGID_00000071537313901258816980000000835661373572377509_);}
	.st19{fill:url(#SVGID_00000012446325623135160850000001207924143392993452_);}
	.st20{fill:url(#SVGID_00000110428836706022701210000002583369958201277573_);}
	.st21{fill:url(#SVGID_00000037686936219387647610000005340848995242155409_);}
	.st22{fill:url(#SVGID_00000114038702390244215280000015328378907663339912_);}
	.st23{fill:url(#SVGID_00000178894286643128091280000009152168502069817789_);}
	.st24{fill:url(#SVGID_00000013170222039504068390000014266789110240977338_);}
	.st25{fill:url(#SVGID_00000009573786157615882870000010392505098628166322_);}
	.st26{fill:url(#SVGID_00000019640276518634876980000013544000528143196857_);}
	.st27{fill:url(#SVGID_00000070815068111260301930000006249882558426757816_);}
	.st28{fill:url(#SVGID_00000093875340156678898190000017661065526483901069_);}
	.st29{fill:url(#SVGID_00000021838677374836255590000011996448039909235126_);}
	.st30{fill:url(#SVGID_00000075854569312504894600000017685422425095195567_);}
	.st31{fill:url(#SVGID_00000112622804310856525320000004913989967426712209_);}
	.st32{fill:url(#SVGID_00000062162914001021469050000011107680407003919497_);}
	.st33{fill:url(#SVGID_00000082363548355854520970000002326399052612878508_);}
	.st34{fill:url(#SVGID_00000034800550475764000540000011781594452010191248_);}
	.st35{fill:url(#SVGID_00000001639211277277188740000010096418761391161260_);}
	.st36{fill:url(#SVGID_00000029766885244228373760000005081697994298476972_);}
	.st37{fill:url(#SVGID_00000054975277404646006340000016457922214127334796_);}
	.st38{fill:url(#SVGID_00000013909876284105323640000003776676803848115617_);}
	.st39{fill:url(#SVGID_00000069393197268230075740000003609406598582024337_);}
	.st40{fill:url(#SVGID_00000062893961420759477050000007892721064816745875_);}
	.st41{fill:url(#SVGID_00000011011486980969206740000015297398787851796927_);}
	.st42{fill:url(#SVGID_00000065761216704837895050000010285703718486935486_);}
	.st43{fill:url(#SVGID_00000132055024027969394410000012487480224161377442_);}
	.st44{fill:url(#SVGID_00000130627858389075965350000003114720402668254369_);}
	.st45{fill:url(#SVGID_00000066504223071295301690000000390339863566061467_);}
	.st46{fill:url(#SVGID_00000130622123922115096200000008591846972376044941_);}
	.st47{fill:url(#SVGID_00000142870887221666483310000013569908799131726754_);}
	.st48{fill:url(#SVGID_00000082368941437508450110000008894034174152217480_);}
	.st49{fill:url(#SVGID_00000180338574612907840750000015393152698703684260_);}
	.st50{fill:url(#SVGID_00000174571114943688791890000009785633336607465145_);}
	.st51{fill:url(#SVGID_00000019669843776851104340000018213807599831797685_);}
	.st52{fill:url(#SVGID_00000079482427088188276320000004932235949739880589_);}
	.st53{fill:url(#SVGID_00000032630424233315332220000016783034441822197906_);}
	.st54{fill:url(#SVGID_00000096022579019787317150000016070637316688457908_);}
	.st55{fill:url(#SVGID_00000013184607714358689470000009077842151054717862_);}
	.st56{fill:url(#SVGID_00000114787802238367550620000014879919796291576713_);}
	.st57{fill:url(#SVGID_00000154427328437005392250000015248546377789641132_);}
	.st58{fill:url(#SVGID_00000103228882466211980800000014271353694312432788_);}
	.st59{fill:url(#SVGID_00000104684732776429409520000016197976750044189358_);}
	.st60{fill:url(#SVGID_00000147914632338791416070000014745862576269248913_);}
	.st61{fill:url(#SVGID_00000135657776515485775740000002827395711122144949_);}
	.st62{fill:url(#SVGID_00000175282071922847834790000013758464815897443759_);}
	.st63{fill:url(#SVGID_00000001664968224770770590000015145949597432556448_);}
	.st64{fill:url(#SVGID_00000060006709034319468270000014876432136814592679_);}
	.st65{fill:url(#SVGID_00000063605206161110092450000012340455005087574704_);}
	.st66{fill:url(#SVGID_00000032611626980244766010000017350888947023843741_);}
	.st67{fill:url(#SVGID_00000142880655560402808290000016012961772353668486_);}
	.st68{fill:url(#SVGID_00000072979841826507945000000008573086375992926397_);}
	.st69{fill:url(#SVGID_00000111190155847269659520000007788034893885388186_);}
	.st70{fill:url(#SVGID_00000065765187291132709060000016953458908711492997_);}
	.st71{fill:url(#SVGID_00000016044979200574764880000013115820355000623803_);}
	.st72{fill:url(#SVGID_00000079449254613961840850000008974875249343403946_);}
	.st73{fill:url(#SVGID_00000032643830420085162220000009026261839203061168_);}
	.st74{fill:url(#SVGID_00000077316426260746780080000011024138225679999119_);}
	.st75{fill:url(#SVGID_00000101809028372495812610000018349704168104761737_);}
	.st76{fill:url(#SVGID_00000069359738094917566480000008544143972549141921_);}
	.st77{fill:url(#SVGID_00000056401611229894343310000006384572644181575042_);}
	.st78{fill:url(#SVGID_00000103943748881378702290000007227257414148408755_);}
	.st79{fill:url(#SVGID_00000090976594999644173320000009483856243358515083_);}
	.st80{fill:url(#SVGID_00000021110134107891833780000012950981195653502596_);}
	.st81{fill:url(#SVGID_00000121262840631258787210000005072186581122759863_);}
	.st82{fill:url(#SVGID_00000096041413329546630940000016895739585309182638_);}
	.st83{fill:url(#SVGID_00000086684025117193781110000007127669274247806127_);}
	.st84{fill:url(#SVGID_00000137125509311278304310000018198875852424669100_);}
	.st85{fill:url(#SVGID_00000041263178352882642580000012639262604722934159_);}
	.st86{fill:url(#SVGID_00000121982377033996969570000000400747285699743626_);}
	.st87{fill:url(#SVGID_00000068649712501788330170000005172554474704682145_);}
	.st88{fill:url(#SVGID_00000054231100160981365120000005404600321366020497_);}
	.st89{fill:url(#SVGID_00000085958770902179338490000014547169897408113811_);}
	.st90{fill:url(#SVGID_00000024689258016309903690000011964952276788331910_);}
	.st91{fill:url(#SVGID_00000106123011764464627820000008617695906172620722_);}
	.st92{fill:url(#SVGID_00000177462598770824643560000004028405518173070724_);}
	.st93{fill:url(#SVGID_00000111171066672587740720000011308862961931083672_);}
	.st94{fill:url(#SVGID_00000050634252276884029030000004748783708928247192_);}
	.st95{fill:url(#SVGID_00000150091443019060585710000015270921863423056519_);}
	.st96{fill:url(#SVGID_00000029759430387879482320000010434055238335791523_);}
	.st97{fill:url(#SVGID_00000146500002782255024450000010965639190146371730_);}
	.st98{fill:url(#SVGID_00000154397779550431431550000011944175354339628453_);}
	.st99{fill:url(#SVGID_00000140730056944605110590000000568171524833811889_);}
	.st100{fill:url(#SVGID_00000073685625369491802910000006947774781485864324_);}
	.st101{fill:url(#SVGID_00000034775375851156364140000012721828946929942969_);}
	.st102{fill:url(#SVGID_00000055691435837320310380000015740342119152227509_);}
	.st103{fill:url(#SVGID_00000017515173140457731750000018001790002679521973_);}
</style>
<g>
	<path class="st0" d="M47.31,62.53h3.07v3.07h-3.07V62.53z M47.31,66.15h3.07v3.07h-3.07V66.15z M43.47,62.53h3.07v3.07h-3.07V62.53
		z M43.47,66.15h3.07v3.07h-3.07V66.15z M51.56,92.72c-3.06-0.42-6.14-0.2-9.26-0.38V80.79h9.26V92.72z M107.36,130.02
		c0.01,0.01,0.02,0.01,0.02,0.02c0.31-0.24,0.62-0.49,0.92-0.74C108,129.54,107.68,129.78,107.36,130.02z M54.34,124.44
		c-9.05-0.87-15.32-3.82-20.36-6.19c-2.3-1.08-4.29-2.01-6.11-2.54c-8.17-2.38-10.68-2.44-17.41-2.59
		c-0.77-0.02-1.59-0.04-2.48-0.06H7.97c0.36,0.53,0.72,1.06,1.09,1.58c0.56,0.79,1.14,1.57,1.74,2.33c0.28,0.38,0.57,0.74,0.87,1.11
		c0.12,0.15,0.24,0.31,0.37,0.46c0.32,0.39,0.65,0.79,0.99,1.17c0.14,0.17,0.28,0.34,0.43,0.5c0.3,0.35,0.61,0.69,0.93,1.03
		c0.15,0.18,0.31,0.35,0.47,0.52c0.45,0.48,0.9,0.96,1.37,1.43c0.39,0.4,0.79,0.79,1.19,1.17c0.01,0,0.01,0,0.01,0
		c4.3-0.5,8.32,2.26,12.17,3.84c4.12,1.91,8.33,3.62,12.72,4.31c8.41,1.33,16.9-0.48,24.39-4.39
		C62.67,126.2,58.5,124.84,54.34,124.44z M91.93,102.36c-5.54-2.57-11.29-4.72-17.21-6.45c-3.17-0.93-6.39-1.73-9.66-2.41V71.22
		h7.96L46.83,49.03L20.64,71.22h7.96v20.1c-8.35,0.71-16.47,2.22-24.3,4.51c-0.51,0.14-1,0.28-1.49,0.44
		C1.87,96.55,0.93,96.85,0,97.16c0.29,0.88,0.58,1.74,0.9,2.59c7.44-1.33,15.07-2,22.68-2c12.26,0,24.39,1.73,36.06,5.13
		c6.03,1.74,11.94,3.93,17.56,6.5c7,3.19,13.71,7,20.08,11.37c3.74-2.93,6.77-6.5,9.7-10.2C102.06,107.42,97.24,104.8,91.93,102.36z
		 M76.17,111.66c-5.52-2.52-11.31-4.67-17.22-6.38c-11.45-3.34-23.35-5.03-35.37-5.03c-7.23,0-14.48,0.62-21.56,1.84
		c1.23,2.87,2.68,5.69,4.33,8.42c1.57,0.05,2.93,0.08,4.17,0.11c6.96,0.16,9.57,0.22,18.05,2.69c2.01,0.58,4.07,1.55,6.47,2.68
		c4.87,2.28,10.93,5.13,19.54,5.96c1.76,0.17,3.51,0.5,5.26,0.96c-1.07-0.78-2.02-1.45-2.69-1.9l-1.86-1.33
		c-0.84-0.64-1.28-1.33-1.78-1.87c-0.31-0.39-0.73-0.76-0.7-1.42c0.05-0.74,0.79-1.14,1.37-1.11c2.75,0.13,5.31,0.56,7.99,1.14
		c6.03,1.69,11.65,3.65,17.87,4.42c1.57,0.25,10.02,1.53,11.43,1.79c1.33,0.28,2.54,0.31,3.68-0.32
		C89.12,118.23,82.77,114.67,76.17,111.66z"/>
</g>
<g>
	<path class="st1" d="M20.96,176.55h-2l-8.04-12.19v12.19h-2v-15.33h2l8.04,12.17v-12.17h2V176.55z"/>
	<path class="st1" d="M24.43,162.16c-0.26-0.26-0.4-0.58-0.4-0.97s0.13-0.7,0.4-0.97c0.26-0.26,0.59-0.4,0.97-0.4
		c0.37,0,0.68,0.13,0.93,0.4s0.38,0.59,0.38,0.97s-0.13,0.7-0.38,0.97c-0.26,0.26-0.57,0.4-0.93,0.4
		C25.02,162.56,24.7,162.43,24.43,162.16z M26.37,164.51v12.04h-2v-12.04H26.37z"/>
	<path class="st1" d="M40.69,171.28h-9.62c0.07,1.19,0.48,2.11,1.22,2.78c0.74,0.67,1.64,1,2.69,1c0.86,0,1.59-0.2,2.16-0.6
		c0.58-0.4,0.99-0.94,1.22-1.62h2.15c-0.32,1.16-0.97,2.1-1.93,2.82c-0.97,0.72-2.17,1.09-3.6,1.09c-1.14,0-2.16-0.26-3.06-0.77
		c-0.9-0.51-1.61-1.24-2.12-2.19c-0.51-0.95-0.77-2.04-0.77-3.29c0-1.24,0.25-2.34,0.75-3.27c0.5-0.94,1.2-1.66,2.1-2.16
		c0.9-0.5,1.94-0.76,3.11-0.76c1.14,0,2.15,0.25,3.03,0.75c0.88,0.5,1.56,1.18,2.03,2.05c0.48,0.87,0.71,1.86,0.71,2.95
		C40.76,170.45,40.73,170.86,40.69,171.28z M38.19,167.69c-0.34-0.55-0.79-0.97-1.37-1.25c-0.58-0.29-1.22-0.43-1.92-0.43
		c-1.01,0-1.87,0.32-2.58,0.97c-0.71,0.64-1.12,1.54-1.22,2.68h7.6C38.69,168.89,38.52,168.24,38.19,167.69z"/>
	<path class="st1" d="M47.19,165c0.79-0.45,1.69-0.68,2.7-0.68c1.08,0,2.06,0.26,2.92,0.77s1.55,1.23,2.04,2.16
		c0.5,0.93,0.75,2.01,0.75,3.24c0,1.22-0.25,2.3-0.75,3.25c-0.5,0.95-1.18,1.69-2.05,2.22s-1.84,0.79-2.91,0.79
		c-1.04,0-1.95-0.23-2.73-0.68c-0.78-0.45-1.37-1.03-1.77-1.74v2.22h-2V160.3h2v6.46C45.8,166.04,46.4,165.45,47.19,165z
		 M53.02,168.12c-0.37-0.67-0.86-1.19-1.48-1.54c-0.62-0.35-1.31-0.53-2.05-0.53c-0.73,0-1.41,0.18-2.03,0.54
		c-0.62,0.36-1.12,0.88-1.49,1.56c-0.37,0.68-0.56,1.47-0.56,2.36c0,0.91,0.19,1.7,0.56,2.38c0.37,0.68,0.87,1.2,1.49,1.56
		c0.62,0.36,1.3,0.54,2.03,0.54c0.75,0,1.43-0.18,2.05-0.54c0.62-0.36,1.12-0.88,1.48-1.56c0.37-0.68,0.55-1.48,0.55-2.41
		C53.56,169.58,53.38,168.79,53.02,168.12z"/>
	<path class="st1" d="M58.31,162.16c-0.26-0.26-0.4-0.58-0.4-0.97s0.13-0.7,0.4-0.97s0.58-0.4,0.97-0.4c0.37,0,0.68,0.13,0.93,0.4
		c0.26,0.26,0.38,0.59,0.38,0.97s-0.13,0.7-0.38,0.97c-0.26,0.26-0.57,0.4-0.93,0.4C58.9,162.56,58.57,162.43,58.31,162.16z
		 M60.24,164.51v12.04h-2v-12.04H60.24z"/>
	<path class="st1" d="M63.65,167.25c0.5-0.93,1.18-1.65,2.05-2.16c0.87-0.51,1.84-0.77,2.91-0.77c1.05,0,1.97,0.23,2.75,0.68
		c0.78,0.45,1.35,1.03,1.74,1.71v-2.2h2.02v12.04H73.1v-2.24c-0.4,0.7-0.99,1.29-1.77,1.75c-0.78,0.46-1.7,0.69-2.74,0.69
		c-1.07,0-2.04-0.26-2.9-0.79s-1.54-1.27-2.04-2.22c-0.5-0.95-0.75-2.04-0.75-3.25C62.9,169.26,63.15,168.18,63.65,167.25z
		 M72.55,168.14c-0.37-0.67-0.86-1.19-1.48-1.55c-0.62-0.36-1.31-0.54-2.05-0.54c-0.75,0-1.43,0.18-2.04,0.53s-1.11,0.86-1.47,1.54
		s-0.55,1.46-0.55,2.37c0,0.92,0.18,1.72,0.55,2.41c0.37,0.68,0.86,1.2,1.47,1.56c0.62,0.36,1.3,0.54,2.04,0.54
		c0.75,0,1.43-0.18,2.05-0.54c0.62-0.36,1.12-0.88,1.48-1.56c0.37-0.68,0.55-1.48,0.55-2.38C73.1,169.6,72.91,168.81,72.55,168.14z"
		/>
	<path class="st1" d="M87.93,165.62c0.91,0.89,1.36,2.16,1.36,3.83v7.1h-1.98v-6.81c0-1.2-0.3-2.12-0.9-2.76
		c-0.6-0.64-1.42-0.96-2.46-0.96c-1.05,0-1.89,0.33-2.52,0.99c-0.62,0.66-0.93,1.62-0.93,2.88v6.66h-2v-12.04h2v1.71
		c0.4-0.62,0.93-1.09,1.62-1.43s1.43-0.5,2.25-0.5C85.83,164.3,87.02,164.74,87.93,165.62z M86.01,161.11l-4.68,2.5v-1.49l4.68-2.75
		V161.11z"/>
	<path class="st1" d="M94.34,176.28c-0.73-0.32-1.31-0.75-1.74-1.32c-0.42-0.56-0.66-1.21-0.7-1.94h2.07
		c0.06,0.6,0.34,1.09,0.85,1.47c0.51,0.38,1.17,0.57,1.99,0.57c0.76,0,1.36-0.17,1.8-0.5s0.66-0.76,0.66-1.27
		c0-0.53-0.23-0.92-0.7-1.18c-0.47-0.26-1.19-0.51-2.17-0.76c-0.89-0.23-1.62-0.47-2.19-0.71c-0.56-0.24-1.05-0.6-1.45-1.08
		c-0.4-0.48-0.6-1.1-0.6-1.88c0-0.62,0.18-1.18,0.55-1.69s0.89-0.92,1.56-1.22c0.67-0.3,1.44-0.45,2.31-0.45
		c1.33,0,2.41,0.34,3.23,1.01s1.26,1.6,1.32,2.77h-2c-0.04-0.63-0.3-1.13-0.76-1.52c-0.46-0.38-1.08-0.57-1.86-0.57
		c-0.72,0-1.29,0.15-1.71,0.46s-0.64,0.71-0.64,1.21c0,0.4,0.13,0.72,0.38,0.98c0.26,0.26,0.58,0.46,0.97,0.62
		c0.39,0.15,0.93,0.33,1.61,0.52c0.86,0.23,1.57,0.46,2.11,0.69c0.54,0.23,1.01,0.57,1.39,1.02c0.39,0.45,0.59,1.05,0.6,1.78
		c0,0.66-0.18,1.25-0.55,1.78c-0.37,0.53-0.88,0.94-1.55,1.24c-0.67,0.3-1.43,0.45-2.3,0.45C95.9,176.75,95.07,176.59,94.34,176.28z
		"/>
	<path class="st1" d="M110.75,176.55l-4.72-5.32v5.32h-2V160.3h2v9.56l4.64-5.34h2.79l-5.67,6l5.69,6.04H110.75z"/>
	<path class="st1" d="M115.34,167.25c0.5-0.93,1.18-1.65,2.05-2.16c0.87-0.51,1.84-0.77,2.91-0.77c1.05,0,1.97,0.23,2.75,0.68
		c0.78,0.45,1.35,1.03,1.74,1.71v-2.2h2.02v12.04h-2.02v-2.24c-0.4,0.7-0.99,1.29-1.77,1.75c-0.78,0.46-1.7,0.69-2.74,0.69
		c-1.07,0-2.04-0.26-2.9-0.79s-1.54-1.27-2.04-2.22c-0.5-0.95-0.75-2.04-0.75-3.25C114.6,169.26,114.85,168.18,115.34,167.25z
		 M124.24,168.14c-0.37-0.67-0.86-1.19-1.48-1.55c-0.62-0.36-1.31-0.54-2.05-0.54c-0.75,0-1.43,0.18-2.04,0.53s-1.11,0.86-1.47,1.54
		s-0.55,1.46-0.55,2.37c0,0.92,0.18,1.72,0.55,2.41c0.37,0.68,0.86,1.2,1.47,1.56c0.62,0.36,1.3,0.54,2.04,0.54
		c0.75,0,1.43-0.18,2.05-0.54c0.62-0.36,1.12-0.88,1.48-1.56c0.37-0.68,0.55-1.48,0.55-2.38
		C124.79,169.6,124.61,168.81,124.24,168.14z"/>
	<path class="st1" d="M44.01,185.79c1.22,0.62,2.16,1.51,2.81,2.67s0.98,2.52,0.98,4.09s-0.33,2.93-0.98,4.08s-1.59,2.03-2.81,2.64
		c-1.22,0.61-2.67,0.91-4.34,0.91H34.9v-15.31h4.77C41.34,184.86,42.79,185.17,44.01,185.79z M44.2,196.95
		c1.04-1.05,1.56-2.52,1.56-4.4c0-1.9-0.53-3.39-1.57-4.46s-2.55-1.6-4.51-1.6H36.9v12.04h2.77C41.65,198.52,43.15,198,44.2,196.95z
		"/>
	<path class="st1" d="M52.62,199.6c-0.92-0.51-1.63-1.24-2.15-2.19c-0.52-0.95-0.78-2.04-0.78-3.29c0-1.23,0.27-2.32,0.8-3.26
		c0.53-0.95,1.26-1.67,2.19-2.18c0.92-0.5,1.96-0.76,3.1-0.76s2.17,0.25,3.1,0.76c0.92,0.51,1.65,1.23,2.19,2.16
		c0.53,0.94,0.8,2.03,0.8,3.27c0,1.25-0.28,2.34-0.82,3.29c-0.55,0.94-1.29,1.67-2.23,2.19c-0.94,0.51-1.98,0.77-3.12,0.77
		C54.56,200.37,53.54,200.11,52.62,199.6z M57.71,198.11c0.63-0.34,1.14-0.84,1.53-1.52c0.39-0.67,0.58-1.49,0.58-2.46
		s-0.19-1.79-0.57-2.46c-0.38-0.67-0.88-1.18-1.49-1.5c-0.62-0.33-1.28-0.5-2-0.5c-0.73,0-1.4,0.17-2.01,0.5
		c-0.61,0.33-1.09,0.83-1.46,1.5s-0.55,1.49-0.55,2.46c0,0.98,0.18,1.81,0.54,2.48c0.36,0.67,0.84,1.18,1.44,1.51
		c0.6,0.33,1.26,0.49,1.98,0.49S57.08,198.44,57.71,198.11z"/>
	<path class="st1" d="M66.49,183.91v16.26h-2v-16.26H66.49z"/>
	<path class="st1" d="M69.97,185.78c-0.26-0.26-0.4-0.58-0.4-0.97s0.13-0.7,0.4-0.97s0.58-0.4,0.97-0.4c0.37,0,0.68,0.13,0.93,0.4
		c0.26,0.26,0.38,0.59,0.38,0.97s-0.13,0.7-0.38,0.97c-0.26,0.26-0.57,0.4-0.93,0.4C70.55,186.18,70.23,186.05,69.97,185.78z
		 M71.9,188.13v12.04h-2v-12.04H71.9z"/>
	<path class="st1" d="M84.73,189.24c0.91,0.89,1.36,2.16,1.36,3.83v7.1h-1.98v-6.81c0-1.2-0.3-2.12-0.9-2.76
		c-0.6-0.64-1.42-0.96-2.46-0.96c-1.05,0-1.89,0.33-2.52,0.99c-0.62,0.66-0.93,1.62-0.93,2.88v6.66h-2v-12.04h2v1.71
		c0.4-0.62,0.93-1.09,1.62-1.43s1.43-0.5,2.25-0.5C82.64,187.91,83.82,188.36,84.73,189.24z"/>
	<path class="st1" d="M89.37,190.87c0.5-0.93,1.18-1.65,2.05-2.16c0.87-0.51,1.84-0.77,2.91-0.77c1.05,0,1.97,0.23,2.75,0.68
		c0.78,0.45,1.35,1.03,1.74,1.71v-2.2h2.02v12.04h-2.02v-2.24c-0.4,0.7-0.99,1.29-1.77,1.75c-0.78,0.46-1.7,0.69-2.74,0.69
		c-1.07,0-2.04-0.26-2.9-0.79s-1.54-1.27-2.04-2.22c-0.5-0.95-0.75-2.04-0.75-3.25C88.62,192.88,88.87,191.8,89.37,190.87z
		 M98.26,191.76c-0.37-0.67-0.86-1.19-1.48-1.55c-0.62-0.36-1.31-0.54-2.05-0.54c-0.75,0-1.43,0.18-2.04,0.53s-1.11,0.86-1.47,1.54
		s-0.55,1.46-0.55,2.37c0,0.92,0.18,1.72,0.55,2.41c0.37,0.68,0.86,1.2,1.47,1.56c0.62,0.36,1.3,0.54,2.04,0.54
		c0.75,0,1.43-0.18,2.05-0.54c0.62-0.36,1.12-0.88,1.48-1.56c0.37-0.68,0.55-1.48,0.55-2.38C98.81,193.22,98.63,192.43,98.26,191.76
		z"/>
</g>
<g>
	<path class="st2" d="M76.17,111.66c6.6,3.01,12.95,6.57,18.98,10.65c-1.14,0.63-2.35,0.6-3.68,0.32
		c-1.41-0.26-9.86-1.54-11.43-1.79c-6.22-0.77-11.84-2.73-17.87-4.42c-2.68-0.58-5.24-1.01-7.99-1.14
		c-0.58-0.03-1.32,0.37-1.37,1.11c-0.03,0.66,0.39,1.03,0.7,1.42c0.5,0.54,0.94,1.23,1.78,1.87l1.86,1.33
		c0.67,0.45,1.62,1.12,2.69,1.9c-1.75-0.46-3.5-0.79-5.26-0.96c-8.61-0.83-14.67-3.68-19.54-5.96c-2.4-1.13-4.46-2.1-6.47-2.68
		c-8.48-2.47-11.09-2.53-18.05-2.69c-1.24-0.03-2.6-0.06-4.17-0.11c-1.65-2.73-3.1-5.55-4.33-8.42c7.08-1.22,14.33-1.84,21.56-1.84
		c12.02,0,23.92,1.69,35.37,5.03C64.86,106.99,70.65,109.14,76.17,111.66z"/>
	<path class="st2" d="M29.6,128.2c-3.85-1.58-7.87-4.34-12.17-3.84c0,0,0,0-0.01,0c-0.4-0.38-0.8-0.77-1.19-1.17
		c-0.47-0.47-0.92-0.95-1.37-1.43c-0.16-0.17-0.32-0.34-0.47-0.52c-0.32-0.34-0.63-0.68-0.93-1.03c-0.15-0.16-0.29-0.33-0.43-0.5
		c-0.34-0.38-0.67-0.78-0.99-1.17c-0.13-0.15-0.25-0.31-0.37-0.46c-0.3-0.37-0.59-0.73-0.87-1.11c-0.6-0.76-1.18-1.54-1.74-2.33
		c-0.37-0.52-0.73-1.05-1.09-1.58h0.01c0.89,0.02,1.71,0.04,2.48,0.06c6.73,0.15,9.24,0.21,17.41,2.59
		c1.82,0.53,3.81,1.46,6.11,2.54c5.04,2.37,11.31,5.32,20.36,6.19c4.16,0.4,8.33,1.76,12.37,3.68c-7.49,3.91-15.98,5.72-24.39,4.39
		C37.93,131.82,33.72,130.11,29.6,128.2z"/>
	<path class="st2" d="M27.33,133.2c-3.17-2.02-6.18-4.35-8.98-6.89c0.1-0.01,0.21-0.01,0.31,0
		C21.35,128.83,24.25,131.14,27.33,133.2z"/>
	<path class="st3" d="M107.36,130.02c0.01,0.01,0.02,0.01,0.02,0.02c0.31-0.24,0.62-0.49,0.92-0.74
		C108,129.54,107.68,129.78,107.36,130.02z M18.66,126.31c-0.1-0.01-0.21-0.01-0.31,0c2.8,2.54,5.81,4.87,8.98,6.89
		C24.25,131.14,21.35,128.83,18.66,126.31z M7.98,113.06H7.97c0.36,0.53,0.72,1.06,1.09,1.58C8.69,114.12,8.33,113.59,7.98,113.06z"
		/>
</g>
<g>
	<path class="st4" d="M29.6,128.2c-3.85-1.58-7.87-4.34-12.17-3.84c0,0,0,0-0.01,0c-0.4-0.38-0.8-0.77-1.19-1.17
		c-0.47-0.47-0.92-0.95-1.37-1.43c-0.16-0.17-0.32-0.34-0.47-0.52c-0.32-0.34-0.63-0.68-0.93-1.03c-0.15-0.16-0.29-0.33-0.43-0.5
		c-0.34-0.38-0.67-0.78-0.99-1.17c-0.13-0.15-0.25-0.31-0.37-0.46c-0.3-0.37-0.59-0.73-0.87-1.11c-0.6-0.76-1.18-1.54-1.74-2.33
		c-0.37-0.52-0.73-1.05-1.09-1.58h0.01c0.89,0.02,1.71,0.04,2.48,0.06c6.73,0.15,9.24,0.21,17.41,2.59
		c1.82,0.53,3.81,1.46,6.11,2.54c5.04,2.37,11.31,5.32,20.36,6.19c4.16,0.4,8.33,1.76,12.37,3.68c-7.49,3.91-15.98,5.72-24.39,4.39
		C37.93,131.82,33.72,130.11,29.6,128.2z"/>
	<path class="st4" d="M27.33,133.2c-3.17-2.02-6.18-4.35-8.98-6.89c0.1-0.01,0.21-0.01,0.31,0
		C21.35,128.83,24.25,131.14,27.33,133.2z"/>
	<path class="st3" d="M18.66,126.31c-0.1-0.01-0.21-0.01-0.31,0c2.8,2.54,5.81,4.87,8.98,6.89
		C24.25,131.14,21.35,128.83,18.66,126.31z"/>
</g>
<path class="st1" d="M132.78,89.08c-0.01,0.03-0.01,0.06-0.02,0.1c-2.28,11.09-7.2,21.22-14.06,29.71
	c-2.97,3.67-6.3,7.04-9.94,10.04c-0.12,0.11-0.25,0.2-0.38,0.3v0.01c-0.03,0.02-0.05,0.04-0.08,0.06c-0.3,0.24-0.62,0.48-0.94,0.72
	c-5.72,4.25-12.08,7.64-18.79,10.03c-0.46,0.17-0.92,0.33-1.38,0.48c-7.6,2.54-15.63,3.82-23.65,3.63
	c-11.46-0.62-22.77-3.93-33-9.04c-1.03-0.57-2.05-1.17-3.05-1.82c-0.06-0.02-0.11-0.06-0.16-0.1c-3.08-2.06-5.98-4.37-8.67-6.89
	c0.32,0,0.64,0.03,0.95,0.08c0.96,0.13,1.91,0.45,2.86,0.89c6.41,2.71,12.44,6.31,19.53,7.33c8.19,1.21,16.68-0.17,24.06-3.9
	c0.59-0.3,1.82-0.92,2.89-1.46c0.51-0.26,0.99-0.5,1.34-0.68c0.12-0.07,0.23-0.12,0.32-0.17c-1.12-0.83-2.63-1.98-4.25-3.19
	c-2.85-2.14-6.04-4.51-8.05-5.85l-1.83-1.3c-0.22-0.16-0.47-0.41-0.72-0.69c0.49,0.06,0.98,0.14,1.52,0.19
	c4.63,0.39,8.81,1.99,13.33,3.18c6.05,1.57,12.23,2.07,18.36,2.93c1.42,0.15,3.31,0.63,4.77,0.44c0.94-0.09,1.77-0.5,2.52-1.03
	c0.37-0.24,0.71-0.52,1.05-0.8c0.24-0.19,0.47-0.39,0.7-0.58c0.1-0.08,0.2-0.16,0.29-0.24c3.49-2.9,6.64-6.2,9.35-9.83
	c0.11-0.15,0.22-0.3,0.32-0.45c1.09-1.48,2.1-3.01,3.03-4.59c0.01-0.02,0.02-0.03,0.03-0.05c3.87-5.92,6.68-12.52,8.38-19.87
	c0.49-2.15,0.2-3.86-0.92-5.71c-5.31-8.85-12.87-15.02-22.25-19.1c-0.38-0.16-0.74-0.35-1.11-0.53c0.05-0.11,0.11-0.21,0.16-0.31
	c9.69,2.24,18.09,6.87,25.32,14.16c0.04-0.74,0.09-1.16,0.09-1.59c-0.09-10.44-2.8-20.17-8.05-29.19c-0.34-0.58-0.91-1.12-1.5-1.47
	c-8.73-5.18-18.16-8.43-28.17-10.02c-2.03-0.33-4.08-0.56-6.12-0.83c10.5-0.44,20.61,1.49,30.8,5.12c-0.37-0.54-0.49-0.73-0.62-0.9
	c-6.55-7.92-14.57-13.87-24-17.92c-0.48-0.21-1.04-0.3-1.57-0.33c-6.22-0.34-12.42,0.01-18.57,1c-8.39,1.36-16.75,2.88-25.12,4.33
	c-0.57,0.1-1.15,0.16-1.72,0.24c-0.01-0.12-0.03-0.25-0.04-0.37c12.37-2.56,24.45-6.45,37.07-8c-0.31-0.22-0.62-0.36-0.95-0.43
	c-19.52-4.14-37.43-0.57-53.63,11.19c-0.72,0.52-1.33,0.8-2.22,0.18c6.94-5.58,14.61-9.67,22.93-12.64
	c0.19-0.07,0.15-0.35-0.05-0.36c-2.29-0.11-4.58-0.21-6.88-0.33c-2.24-0.1-4.49-0.2-6.73-0.31c0.02-0.06,0.03-0.13,0.04-0.2
	c2.88-0.15,5.75-0.29,8.63-0.45c5.34-0.27,10.69-0.55,16.04-0.83c0.06-0.31,0.05-0.27,0.12-0.59c-1.79-0.86-3.59-1.73-5.47-2.64
	c-0.37-0.17-0.74-0.35-1.11-0.53c0.65,0.08,1.19,0.06,1.67,0.23c0.08,0.03,0.15,0.05,0.23,0.08c2.34,0.81,4.66,1.68,7,2.47
	c0.74,0.25,1.57,0.47,2.32,0.4c12.48-1.14,24.5,0.6,36.07,5.44c0.35,0.14,0.72,0.24,1.08,0.36c-2.57-3.93-5.65-6.7-9.11-8.63
	c-5.53-3.09-12.04-4.02-18.95-4.08c0.3-0.16,0.59-0.27,0.88-0.26c3.77,0.07,7.59-0.22,11.3,0.31c6.31,0.89,11.66,3.27,15.9,7.27
	c2.26,2.13,4.21,4.73,5.81,7.81c0.25,0.48,0.72,0.89,1.17,1.22c3.69,2.65,7.39,5.27,11.09,7.9c0.2,0.14,0.41,0.27,0.54,0.36
	c-0.26-2.04-0.58-4.07-0.83-6.1c-0.12-0.99-0.23-1.98-0.3-2.98c-0.22-3.03,0.35-6,1.6-8.82c0.14,0.38,0.18,0.77,0.08,1.11
	c-1.12,3.81-0.66,7.59,0.35,11.32c0.12,0.42,0.24,0.84,0.36,1.26c1.14,3.85,2.72,7.53,5.15,10.81c2.45,3.32,4.84,6.7,7.25,10.05
	c0.28,0.38,0.5,0.79,0.97,1.54c0.12-1.48,0.3-2.9,0.55-4.28c0.73-4,2.1-7.6,4.63-10.78c0.06,0.34,0.02,0.67-0.14,0.92
	c-2.08,3.31-2.97,6.99-2.91,10.8c0.01,0.74,0.01,1.49,0.02,2.25c0.03,2.58,0.15,5.2,1.04,7.46
	C133.35,64.75,134.81,76.83,132.78,89.08z"/>
<path class="st1" d="M27.33,133.2c-3.17-2.02-6.18-4.35-8.98-6.89c0.1-0.01,0.21-0.01,0.31,0C21.35,128.83,24.25,131.14,27.33,133.2
	z"/>
<path class="st1" d="M108.3,129.3c-0.3,0.25-0.61,0.5-0.92,0.74c0-0.01-0.01-0.01-0.02-0.02C107.68,129.78,108,129.54,108.3,129.3z"
	/>
<path class="st3" d="M108.3,129.3c-0.3,0.25-0.61,0.5-0.92,0.74c0-0.01-0.01-0.01-0.02-0.02C107.68,129.78,108,129.54,108.3,129.3z"
	/>
<g>
	<linearGradient id="SVGID_1_" gradientUnits="userSpaceOnUse" x1="64.3727" y1="30.9715" x2="75.9735" y2="30.9715">
		<stop  offset="0" style="stop-color:#FF00A4"/>
		<stop  offset="1" style="stop-color:#F79AD1"/>
	</linearGradient>
	<path class="st5" d="M75.97,31.97L75.97,31.97c-3.76,2.65-8.95,1.75-11.6-2l0,0l0,0C68.13,27.32,73.32,28.22,75.97,31.97
		L75.97,31.97z"/>
	
		<linearGradient id="SVGID_00000118381988092575889120000007732555653670214540_" gradientUnits="userSpaceOnUse" x1="95.5258" y1="56.7113" x2="103.8502" y2="56.7113">
		<stop  offset="0" style="stop-color:#FF00A4"/>
		<stop  offset="1" style="stop-color:#F79AD1"/>
	</linearGradient>
	<path style="fill:url(#SVGID_00000118381988092575889120000007732555653670214540_);" d="M103.85,60.87L103.85,60.87
		c-4.6,0-8.32-3.73-8.32-8.32v0h0C100.12,52.55,103.85,56.28,103.85,60.87L103.85,60.87z"/>
	
		<linearGradient id="SVGID_00000103248799810623889340000013049377783461970322_" gradientUnits="userSpaceOnUse" x1="82.4839" y1="59.8603" x2="94.0846" y2="59.8603">
		<stop  offset="0" style="stop-color:#FF00A4"/>
		<stop  offset="1" style="stop-color:#F79AD1"/>
	</linearGradient>
	<path style="fill:url(#SVGID_00000103248799810623889340000013049377783461970322_);" d="M94.08,60.86L94.08,60.86
		c-3.76,2.65-8.95,1.75-11.6-2v0l0,0C86.24,56.21,91.43,57.11,94.08,60.86L94.08,60.86z"/>
	
		<linearGradient id="SVGID_00000057860103641117375280000017037008045813161383_" gradientUnits="userSpaceOnUse" x1="105.1218" y1="44.7103" x2="111.2297" y2="44.7103">
		<stop  offset="0" style="stop-color:#FF00A4"/>
		<stop  offset="1" style="stop-color:#F79AD1"/>
	</linearGradient>
	<path style="fill:url(#SVGID_00000057860103641117375280000017037008045813161383_);" d="M111.09,45.06L111.09,45.06
		c-1.61,1.61-4.21,1.61-5.82,0v0c-0.19-0.19-0.19-0.5,0-0.69l0,0c1.61-1.61,4.21-1.61,5.82,0v0
		C111.28,44.56,111.28,44.87,111.09,45.06z"/>
	
		<linearGradient id="SVGID_00000012450269691506207730000007342843947060088763_" gradientUnits="userSpaceOnUse" x1="77.8837" y1="20.4461" x2="83.9916" y2="20.4461">
		<stop  offset="0" style="stop-color:#FF00A4"/>
		<stop  offset="1" style="stop-color:#F79AD1"/>
	</linearGradient>
	<path style="fill:url(#SVGID_00000012450269691506207730000007342843947060088763_);" d="M83.85,20.79L83.85,20.79
		c-1.61,1.61-4.21,1.61-5.82,0l0,0c-0.19-0.19-0.19-0.5,0-0.69l0,0c1.61-1.61,4.21-1.61,5.82,0l0,0
		C84.04,20.29,84.04,20.6,83.85,20.79z"/>
	
		<linearGradient id="SVGID_00000020377153325955807300000014908325579936041089_" gradientUnits="userSpaceOnUse" x1="48.9876" y1="17.7479" x2="55.0955" y2="17.7479">
		<stop  offset="0" style="stop-color:#FF00A4"/>
		<stop  offset="1" style="stop-color:#F79AD1"/>
	</linearGradient>
	<path style="fill:url(#SVGID_00000020377153325955807300000014908325579936041089_);" d="M54.95,18.09L54.95,18.09
		c-1.61,1.61-4.21,1.61-5.82,0l0,0c-0.19-0.19-0.19-0.5,0-0.69l0,0c1.61-1.61,4.21-1.61,5.82,0l0,0
		C55.14,17.59,55.14,17.9,54.95,18.09z"/>
	
		<linearGradient id="SVGID_00000155859989935512462380000010938742344600145325_" gradientUnits="userSpaceOnUse" x1="60.4334" y1="21.106" x2="66.5414" y2="21.106">
		<stop  offset="0" style="stop-color:#FF00A4"/>
		<stop  offset="1" style="stop-color:#F79AD1"/>
	</linearGradient>
	<path style="fill:url(#SVGID_00000155859989935512462380000010938742344600145325_);" d="M66.4,21.45L66.4,21.45
		c-1.61,1.61-4.21,1.61-5.82,0l0,0c-0.19-0.19-0.19-0.5,0-0.69l0,0c1.61-1.61,4.21-1.61,5.82,0v0
		C66.59,20.95,66.59,21.26,66.4,21.45z"/>
	
		<linearGradient id="SVGID_00000047739543325201027830000004098918268968695221_" gradientUnits="userSpaceOnUse" x1="37.3916" y1="25.0983" x2="43.4996" y2="25.0983">
		<stop  offset="0" style="stop-color:#FF00A4"/>
		<stop  offset="1" style="stop-color:#F79AD1"/>
	</linearGradient>
	<path style="fill:url(#SVGID_00000047739543325201027830000004098918268968695221_);" d="M43.36,25.44L43.36,25.44
		c-1.61,1.61-4.21,1.61-5.82,0l0,0c-0.19-0.19-0.19-0.5,0-0.69l0,0c1.61-1.61,4.21-1.61,5.82,0v0
		C43.55,24.94,43.55,25.25,43.36,25.44z"/>
	
		<linearGradient id="SVGID_00000140692835536524801660000000746468152524432826_" gradientUnits="userSpaceOnUse" x1="66.8091" y1="8.7452" x2="72.9171" y2="8.7452">
		<stop  offset="0" style="stop-color:#FF00A4"/>
		<stop  offset="1" style="stop-color:#F79AD1"/>
	</linearGradient>
	<path style="fill:url(#SVGID_00000140692835536524801660000000746468152524432826_);" d="M72.77,9.09L72.77,9.09
		c-1.61,1.61-4.21,1.61-5.82,0l0,0c-0.19-0.19-0.19-0.5,0-0.69l0,0c1.61-1.61,4.21-1.61,5.82,0v0C72.96,8.59,72.96,8.9,72.77,9.09z"
		/>
	
		<linearGradient id="SVGID_00000109029178321668439500000014208295248063913364_" gradientUnits="userSpaceOnUse" x1="78.8228" y1="10.1967" x2="84.9308" y2="10.1967">
		<stop  offset="0" style="stop-color:#FF00A4"/>
		<stop  offset="1" style="stop-color:#F79AD1"/>
	</linearGradient>
	<path style="fill:url(#SVGID_00000109029178321668439500000014208295248063913364_);" d="M84.79,10.54L84.79,10.54
		c-1.61,1.61-4.21,1.61-5.82,0v0c-0.19-0.19-0.19-0.5,0-0.69l0,0c1.61-1.61,4.21-1.61,5.82,0l0,0
		C84.98,10.04,84.98,10.35,84.79,10.54z"/>
	
		<linearGradient id="SVGID_00000038397555988975714260000000284460118926670219_" gradientUnits="userSpaceOnUse" x1="97.7298" y1="32.8904" x2="103.5214" y2="32.8904">
		<stop  offset="0" style="stop-color:#FF00A4"/>
		<stop  offset="1" style="stop-color:#F79AD1"/>
	</linearGradient>
	<path style="fill:url(#SVGID_00000038397555988975714260000000284460118926670219_);" d="M103.24,34.22L103.24,34.22
		c-2.06,0.95-4.51,0.05-5.46-2.01v0c-0.11-0.25-0.01-0.54,0.24-0.65l0,0c2.06-0.95,4.51-0.05,5.46,2.01v0
		C103.59,33.82,103.48,34.11,103.24,34.22z"/>
	
		<linearGradient id="SVGID_00000078017998883895349120000015210388627394189503_" gradientUnits="userSpaceOnUse" x1="73.9446" y1="7.1937" x2="79.7362" y2="7.1937">
		<stop  offset="0" style="stop-color:#FF00A4"/>
		<stop  offset="1" style="stop-color:#F79AD1"/>
	</linearGradient>
	<path style="fill:url(#SVGID_00000078017998883895349120000015210388627394189503_);" d="M79.45,8.53L79.45,8.53
		c-2.06,0.95-4.51,0.05-5.46-2.01v0c-0.11-0.25-0.01-0.54,0.24-0.65l0,0c2.06-0.95,4.51-0.05,5.46,2.01v0
		C79.8,8.12,79.7,8.41,79.45,8.53z"/>
	
		<linearGradient id="SVGID_00000149343846424353824210000002167429268130526341_" gradientUnits="userSpaceOnUse" x1="116.4943" y1="69.3415" x2="119.7736" y2="69.3415">
		<stop  offset="0" style="stop-color:#FF00A4"/>
		<stop  offset="1" style="stop-color:#F79AD1"/>
	</linearGradient>
	<path style="fill:url(#SVGID_00000149343846424353824210000002167429268130526341_);" d="M118.55,72.24L118.55,72.24
		c-1.97-1.14-2.64-3.65-1.51-5.62h0c0.14-0.23,0.43-0.31,0.67-0.18l0,0c1.97,1.14,2.64,3.65,1.51,5.62l0,0
		C119.09,72.3,118.79,72.38,118.55,72.24z"/>
	
		<linearGradient id="SVGID_00000119108826005589620020000014821420075606643358_" gradientUnits="userSpaceOnUse" x1="122.3877" y1="39.8905" x2="125.5246" y2="39.8905">
		<stop  offset="0" style="stop-color:#FF00A4"/>
		<stop  offset="1" style="stop-color:#F79AD1"/>
	</linearGradient>
	<path style="fill:url(#SVGID_00000119108826005589620020000014821420075606643358_);" d="M123.97,36.96L123.97,36.96
		c1.78,1.41,2.08,4,0.66,5.78v0c-0.17,0.21-0.48,0.25-0.69,0.08l0,0c-1.78-1.41-2.08-4-0.66-5.78v0
		C123.45,36.83,123.76,36.79,123.97,36.96z"/>
	
		<linearGradient id="SVGID_00000105394398912349791440000006217340001497098428_" gradientUnits="userSpaceOnUse" x1="122.9713" y1="33.565" x2="126.9624" y2="33.565">
		<stop  offset="0" style="stop-color:#FF00A4"/>
		<stop  offset="1" style="stop-color:#F79AD1"/>
	</linearGradient>
	<path style="fill:url(#SVGID_00000105394398912349791440000006217340001497098428_);" d="M123.62,30.96L123.62,30.96
		c2.23,0.43,3.7,2.58,3.27,4.82v0c-0.05,0.27-0.31,0.44-0.57,0.39h0c-2.23-0.43-3.7-2.58-3.27-4.82v0
		C123.1,31.09,123.35,30.91,123.62,30.96z"/>
	
		<linearGradient id="SVGID_00000042007238198206193000000017833360937395200166_" gradientUnits="userSpaceOnUse" x1="93.3446" y1="42.9561" x2="103.8502" y2="42.9561">
		<stop  offset="0" style="stop-color:#FF00A4"/>
		<stop  offset="1" style="stop-color:#F79AD1"/>
	</linearGradient>
	<path style="fill:url(#SVGID_00000042007238198206193000000017833360937395200166_);" d="M103.85,40.3L103.85,40.3
		c-1.43,4.37-6.14,6.75-10.51,5.31l0,0l0,0C94.78,41.24,99.48,38.87,103.85,40.3L103.85,40.3z"/>
	
		<linearGradient id="SVGID_00000047059792140247816860000010863680892297483680_" gradientUnits="userSpaceOnUse" x1="84.636" y1="38.5843" x2="96.4082" y2="38.5843">
		<stop  offset="0" style="stop-color:#FF00A4"/>
		<stop  offset="1" style="stop-color:#F79AD1"/>
	</linearGradient>
	<path style="fill:url(#SVGID_00000047059792140247816860000010863680892297483680_);" d="M96.41,38.54L96.41,38.54
		c-3.23,3.27-8.5,3.31-11.77,0.08l0,0l0,0C87.86,35.35,93.13,35.32,96.41,38.54L96.41,38.54z"/>
	
		<linearGradient id="SVGID_00000134221757863189765900000000801772129723261852_" gradientUnits="userSpaceOnUse" x1="72.4369" y1="36.6922" x2="83.3305" y2="36.6922">
		<stop  offset="0" style="stop-color:#FF00A4"/>
		<stop  offset="1" style="stop-color:#F79AD1"/>
	</linearGradient>
	<path style="fill:url(#SVGID_00000134221757863189765900000000801772129723261852_);" d="M83.33,34.46L83.33,34.46
		c-1.78,4.24-6.65,6.24-10.89,4.46l0,0v0C74.21,34.68,79.09,32.68,83.33,34.46L83.33,34.46z"/>
	
		<linearGradient id="SVGID_00000036233714408839790120000005387597893233709723_" gradientUnits="userSpaceOnUse" x1="128.4171" y1="46.6787" x2="135.0012" y2="46.6787">
		<stop  offset="0" style="stop-color:#FF00A4"/>
		<stop  offset="1" style="stop-color:#F79AD1"/>
	</linearGradient>
	<path style="fill:url(#SVGID_00000036233714408839790120000005387597893233709723_);" d="M129.89,53.11L129.89,53.11
		c4.24-1.78,6.24-6.65,4.46-10.89l-0.82-1.97v0c-4.24,1.78-6.24,6.65-4.46,10.89L129.89,53.11z"/>
	
		<linearGradient id="SVGID_00000050626906329885656870000008852016911187418786_" gradientUnits="userSpaceOnUse" x1="87.0592" y1="65.9975" x2="98.3259" y2="65.9975">
		<stop  offset="0" style="stop-color:#FF00A4"/>
		<stop  offset="1" style="stop-color:#F79AD1"/>
	</linearGradient>
	<path style="fill:url(#SVGID_00000050626906329885656870000008852016911187418786_);" d="M98.33,64.29L98.33,64.29
		c-2.17,4.05-7.21,5.58-11.27,3.41h0v0C89.23,63.65,94.27,62.12,98.33,64.29L98.33,64.29z"/>
	
		<linearGradient id="SVGID_00000044174036464134198000000016943150539495604157_" gradientUnits="userSpaceOnUse" x1="128.8356" y1="37.7794" x2="133.5667" y2="37.7794">
		<stop  offset="0" style="stop-color:#FF00A4"/>
		<stop  offset="1" style="stop-color:#F79AD1"/>
	</linearGradient>
	<path style="fill:url(#SVGID_00000044174036464134198000000016943150539495604157_);" d="M128.84,39.7L128.84,39.7
		c2.36,0.25,4.48-1.47,4.73-3.83v0l0,0C131.2,35.61,129.08,37.33,128.84,39.7L128.84,39.7z"/>
	
		<linearGradient id="SVGID_00000000904165913777184840000005135087361311726496_" gradientUnits="userSpaceOnUse" x1="129.9819" y1="34.219" x2="132.4203" y2="34.219">
		<stop  offset="0" style="stop-color:#FF00A4"/>
		<stop  offset="1" style="stop-color:#F79AD1"/>
	</linearGradient>
	<path style="fill:url(#SVGID_00000000904165913777184840000005135087361311726496_);" d="M129.98,35.21L129.98,35.21
		c1.22,0.13,2.31-0.76,2.44-1.98v0l0,0C131.2,33.1,130.11,33.99,129.98,35.21L129.98,35.21z"/>
	
		<linearGradient id="SVGID_00000026880345807560850930000004411313621132893831_" gradientUnits="userSpaceOnUse" x1="127.864" y1="31.066" x2="129.1987" y2="31.066">
		<stop  offset="0" style="stop-color:#FF00A4"/>
		<stop  offset="1" style="stop-color:#F79AD1"/>
	</linearGradient>
	<path style="fill:url(#SVGID_00000026880345807560850930000004411313621132893831_);" d="M128.76,32.62L128.76,32.62
		c0.73-0.99,0.52-2.37-0.46-3.1v0v0C127.57,30.5,127.78,31.89,128.76,32.62L128.76,32.62z"/>
	
		<linearGradient id="SVGID_00000145771961656337084940000004721111663235812019_" gradientUnits="userSpaceOnUse" x1="105.4863" y1="21.9977" x2="109.1272" y2="21.9977">
		<stop  offset="0" style="stop-color:#FF00A4"/>
		<stop  offset="1" style="stop-color:#F79AD1"/>
	</linearGradient>
	<path style="fill:url(#SVGID_00000145771961656337084940000004721111663235812019_);" d="M106.32,19.24L106.32,19.24
		c2.15,0.72,3.31,3.06,2.59,5.21v0c-0.09,0.26-0.36,0.39-0.62,0.31l0,0c-2.15-0.72-3.31-3.06-2.59-5.21l0,0
		C105.79,19.29,106.07,19.15,106.32,19.24z"/>
	
		<linearGradient id="SVGID_00000183217591608959217760000005639807212402299303_" gradientUnits="userSpaceOnUse" x1="97.7597" y1="15.7052" x2="100.8696" y2="15.7052">
		<stop  offset="0" style="stop-color:#FF00A4"/>
		<stop  offset="1" style="stop-color:#F79AD1"/>
	</linearGradient>
	<path style="fill:url(#SVGID_00000183217591608959217760000005639807212402299303_);" d="M99.81,12.82L99.81,12.82
		c1.52,1.69,1.39,4.29-0.3,5.81l0,0c-0.2,0.18-0.51,0.17-0.69-0.04l0,0c-1.52-1.69-1.39-4.29,0.3-5.81v0
		C99.32,12.6,99.63,12.62,99.81,12.82z"/>
	
		<linearGradient id="SVGID_00000180349946867187251410000005148444388609872545_" gradientUnits="userSpaceOnUse" x1="103.5414" y1="15.7052" x2="108.6729" y2="15.7052">
		<stop  offset="0" style="stop-color:#FF00A4"/>
		<stop  offset="1" style="stop-color:#F79AD1"/>
	</linearGradient>
	<path style="fill:url(#SVGID_00000180349946867187251410000005148444388609872545_);" d="M103.95,13.72L103.95,13.72
		c2.25-0.36,4.36,1.17,4.71,3.42v0c0.04,0.27-0.14,0.52-0.41,0.56l0,0c-2.25,0.36-4.36-1.17-4.71-3.42v0
		C103.51,14.01,103.69,13.76,103.95,13.72z"/>
	
		<linearGradient id="SVGID_00000072974616294515661610000007124171053301449626_" gradientUnits="userSpaceOnUse" x1="107.7709" y1="12.1434" x2="109.4491" y2="12.1434">
		<stop  offset="0" style="stop-color:#FF00A4"/>
		<stop  offset="1" style="stop-color:#F79AD1"/>
	</linearGradient>
	<path style="fill:url(#SVGID_00000072974616294515661610000007124171053301449626_);" d="M109.36,13.52L109.36,13.52
		c0.35-1.17-0.32-2.41-1.49-2.76v0l0,0C107.51,11.94,108.18,13.17,109.36,13.52L109.36,13.52z"/>
	
		<linearGradient id="SVGID_00000109741151036834749720000000542614804206816416_" gradientUnits="userSpaceOnUse" x1="112.8149" y1="21.7336" x2="116.4558" y2="21.7336">
		<stop  offset="0" style="stop-color:#FF00A4"/>
		<stop  offset="1" style="stop-color:#F79AD1"/>
	</linearGradient>
	<path style="fill:url(#SVGID_00000109741151036834749720000000542614804206816416_);" d="M115.62,18.97L115.62,18.97
		c-2.15,0.72-3.31,3.06-2.59,5.21v0c0.09,0.26,0.36,0.39,0.62,0.31l0,0c2.15-0.72,3.31-3.06,2.59-5.21v0
		C116.15,19.02,115.88,18.89,115.62,18.97z"/>
	
		<linearGradient id="SVGID_00000016042900737862217590000011089366985760958133_" gradientUnits="userSpaceOnUse" x1="111.4914" y1="16.1035" x2="116.6229" y2="16.1035">
		<stop  offset="0" style="stop-color:#FF00A4"/>
		<stop  offset="1" style="stop-color:#F79AD1"/>
	</linearGradient>
	<path style="fill:url(#SVGID_00000016042900737862217590000011089366985760958133_);" d="M116.21,14.12L116.21,14.12
		c-2.25-0.36-4.36,1.17-4.71,3.42v0c-0.04,0.27,0.14,0.52,0.41,0.56l0,0c2.25,0.36,4.36-1.17,4.71-3.42v0
		C116.66,14.41,116.48,14.16,116.21,14.12z"/>
	
		<linearGradient id="SVGID_00000026131112174404614890000012882626064651929270_" gradientUnits="userSpaceOnUse" x1="112.493" y1="11.8793" x2="114.1712" y2="11.8793">
		<stop  offset="0" style="stop-color:#FF00A4"/>
		<stop  offset="1" style="stop-color:#F79AD1"/>
	</linearGradient>
	<path style="fill:url(#SVGID_00000026131112174404614890000012882626064651929270_);" d="M112.59,13.26L112.59,13.26
		c-0.35-1.17,0.32-2.41,1.49-2.76l0,0v0C114.43,11.67,113.76,12.91,112.59,13.26L112.59,13.26z"/>
	
		<linearGradient id="SVGID_00000080923456125152507070000013053865995396685733_" gradientUnits="userSpaceOnUse" x1="131.0023" y1="29.2238" x2="135.7334" y2="29.2238">
		<stop  offset="0" style="stop-color:#FF00A4"/>
		<stop  offset="1" style="stop-color:#F79AD1"/>
	</linearGradient>
	<path style="fill:url(#SVGID_00000080923456125152507070000013053865995396685733_);" d="M131,31.14L131,31.14
		c2.36,0.25,4.48-1.47,4.73-3.83v0v0C133.37,27.06,131.25,28.78,131,31.14L131,31.14z"/>
	
		<linearGradient id="SVGID_00000016064064734934346470000007313339474474410895_" gradientUnits="userSpaceOnUse" x1="111.6916" y1="7.7554" x2="116.4227" y2="7.7554">
		<stop  offset="0" style="stop-color:#FF00A4"/>
		<stop  offset="1" style="stop-color:#F79AD1"/>
	</linearGradient>
	<path style="fill:url(#SVGID_00000016064064734934346470000007313339474474410895_);" d="M111.69,9.67L111.69,9.67
		c2.36,0.25,4.48-1.47,4.73-3.83v0l0,0C114.06,5.59,111.94,7.31,111.69,9.67L111.69,9.67z"/>
	
		<linearGradient id="SVGID_00000076581232470107390510000003387267408976138904_" gradientUnits="userSpaceOnUse" x1="103.8502" y1="76.1522" x2="112.9875" y2="76.1522">
		<stop  offset="0" style="stop-color:#FF00A4"/>
		<stop  offset="1" style="stop-color:#F79AD1"/>
	</linearGradient>
	<path style="fill:url(#SVGID_00000076581232470107390510000003387267408976138904_);" d="M103.85,75.67
		c0.75,1.29,2.37,2.3,4.36,2.5s3.78-0.44,4.78-1.55c-0.75-1.29-2.37-2.3-4.36-2.5S104.85,74.57,103.85,75.67z"/>
	
		<linearGradient id="SVGID_00000145017240206001202680000003668946719163009445_" gradientUnits="userSpaceOnUse" x1="76.7567" y1="28.0672" x2="85.894" y2="28.0672">
		<stop  offset="0" style="stop-color:#FF00A4"/>
		<stop  offset="1" style="stop-color:#F79AD1"/>
	</linearGradient>
	<path style="fill:url(#SVGID_00000145017240206001202680000003668946719163009445_);" d="M76.76,27.59c0.75,1.29,2.37,2.3,4.36,2.5
		c1.99,0.21,3.78-0.44,4.78-1.55c-0.75-1.29-2.37-2.3-4.36-2.5C79.55,25.83,77.75,26.48,76.76,27.59z"/>
	
		<linearGradient id="SVGID_00000120527291781665301370000005952099763557458573_" gradientUnits="userSpaceOnUse" x1="67.7522" y1="21.106" x2="76.7135" y2="21.106">
		<stop  offset="0" style="stop-color:#FF00A4"/>
		<stop  offset="1" style="stop-color:#F79AD1"/>
	</linearGradient>
	<path style="fill:url(#SVGID_00000120527291781665301370000005952099763557458573_);" d="M67.75,20.09c0.59,1.37,2.08,2.56,4.03,3
		c1.95,0.44,3.81,0.01,4.93-0.97c-0.59-1.37-2.08-2.56-4.03-3C70.73,18.68,68.87,19.11,67.75,20.09z"/>
	
		<linearGradient id="SVGID_00000094585511011735270140000012060469836278038166_" gradientUnits="userSpaceOnUse" x1="89.0064" y1="29.1416" x2="96.2076" y2="29.1416">
		<stop  offset="0" style="stop-color:#FF00A4"/>
		<stop  offset="1" style="stop-color:#F79AD1"/>
	</linearGradient>
	<path style="fill:url(#SVGID_00000094585511011735270140000012060469836278038166_);" d="M89.01,26.28
		c-0.06,1.49,0.76,3.21,2.33,4.45c1.57,1.24,3.43,1.66,4.86,1.26c0.06-1.49-0.76-3.21-2.33-4.45C92.31,26.3,90.45,25.88,89.01,26.28
		z"/>
	
		<linearGradient id="SVGID_00000040546536791871946360000008595909394001658297_" gradientUnits="userSpaceOnUse" x1="111.2885" y1="63.1343" x2="115.4469" y2="63.1343">
		<stop  offset="0" style="stop-color:#FF00A4"/>
		<stop  offset="1" style="stop-color:#F79AD1"/>
	</linearGradient>
	<path style="fill:url(#SVGID_00000040546536791871946360000008595909394001658297_);" d="M112.77,58.58
		c-1.08,1.02-1.68,2.83-1.43,4.82c0.26,1.98,1.3,3.58,2.61,4.29c1.08-1.02,1.68-2.83,1.43-4.82
		C115.13,60.89,114.08,59.29,112.77,58.58z"/>
	
		<linearGradient id="SVGID_00000051378523091892923460000011496525314117016239_" gradientUnits="userSpaceOnUse" x1="106.0503" y1="60.5221" x2="109.0883" y2="60.5221">
		<stop  offset="0" style="stop-color:#FF00A4"/>
		<stop  offset="1" style="stop-color:#F79AD1"/>
	</linearGradient>
	<path style="fill:url(#SVGID_00000051378523091892923460000011496525314117016239_);" d="M107.18,57.54
		c-0.8,0.68-1.26,1.88-1.1,3.17s0.92,2.33,1.87,2.79c0.8-0.68,1.26-1.88,1.1-3.17C108.88,59.03,108.13,58,107.18,57.54z"/>
	
		<linearGradient id="SVGID_00000144300957127671011840000014607410006301348768_" gradientUnits="userSpaceOnUse" x1="92.6069" y1="9.2007" x2="96.1462" y2="9.2007">
		<stop  offset="0" style="stop-color:#FF00A4"/>
		<stop  offset="1" style="stop-color:#F79AD1"/>
	</linearGradient>
	<path style="fill:url(#SVGID_00000144300957127671011840000014607410006301348768_);" d="M93.01,6.52
		c-0.53,0.91-0.57,2.19,0.03,3.36c0.59,1.17,1.65,1.89,2.7,2c0.53-0.91,0.57-2.19-0.03-3.36C95.12,7.36,94.06,6.63,93.01,6.52z"/>
	
		<linearGradient id="SVGID_00000068646963939681788740000007618103743979246520_" gradientUnits="userSpaceOnUse" x1="85.8673" y1="5.75" x2="89.9645" y2="5.75">
		<stop  offset="0" style="stop-color:#FF00A4"/>
		<stop  offset="1" style="stop-color:#F79AD1"/>
	</linearGradient>
	<path style="fill:url(#SVGID_00000068646963939681788740000007618103743979246520_);" d="M85.87,4.39
		c0.08,0.73,0.63,1.56,1.52,2.15c0.89,0.59,1.87,0.77,2.58,0.56c-0.08-0.73-0.63-1.56-1.52-2.15S86.57,4.18,85.87,4.39z"/>
	
		<linearGradient id="SVGID_00000013157370971972831620000012264512334497832079_" gradientUnits="userSpaceOnUse" x1="112.4089" y1="80.486" x2="117.3737" y2="80.486">
		<stop  offset="0" style="stop-color:#FF00A4"/>
		<stop  offset="1" style="stop-color:#F79AD1"/>
	</linearGradient>
	<path style="fill:url(#SVGID_00000013157370971972831620000012264512334497832079_);" d="M112.41,78.79
		c-0.03,1.05,0.56,2.19,1.64,2.93c1.08,0.74,2.35,0.87,3.33,0.46c0.03-1.05-0.56-2.19-1.64-2.93
		C114.65,78.51,113.38,78.38,112.41,78.79z"/>
	
		<linearGradient id="SVGID_00000069374990483607415540000017094372472508852147_" gradientUnits="userSpaceOnUse" x1="86.114" y1="13.1139" x2="89.0271" y2="13.1139">
		<stop  offset="0" style="stop-color:#FF00A4"/>
		<stop  offset="1" style="stop-color:#F79AD1"/>
	</linearGradient>
	<path style="fill:url(#SVGID_00000069374990483607415540000017094372472508852147_);" d="M86.11,12.12
		c-0.02,0.62,0.33,1.29,0.96,1.72s1.38,0.51,1.95,0.27c0.02-0.62-0.33-1.29-0.96-1.72S86.69,11.88,86.11,12.12z"/>
	
		<linearGradient id="SVGID_00000173882282029296596330000000339872118688457863_" gradientUnits="userSpaceOnUse" x1="42.5704" y1="19.8679" x2="45.9981" y2="19.8679">
		<stop  offset="0" style="stop-color:#FF00A4"/>
		<stop  offset="1" style="stop-color:#F79AD1"/>
	</linearGradient>
	<path style="fill:url(#SVGID_00000173882282029296596330000000339872118688457863_);" d="M42.57,20.28
		c0.45,0.43,1.17,0.62,1.92,0.44c0.75-0.18,1.3-0.68,1.51-1.27c-0.45-0.43-1.17-0.62-1.92-0.44C43.33,19.19,42.77,19.7,42.57,20.28z
		"/>
	
		<linearGradient id="SVGID_00000127747040240997794680000015760882801802982074_" gradientUnits="userSpaceOnUse" x1="24.189" y1="17.8494" x2="27.6167" y2="17.8494">
		<stop  offset="0" style="stop-color:#FF00A4"/>
		<stop  offset="1" style="stop-color:#F79AD1"/>
	</linearGradient>
	<path style="fill:url(#SVGID_00000127747040240997794680000015760882801802982074_);" d="M24.19,18.26
		c0.45,0.43,1.17,0.62,1.92,0.44c0.75-0.18,1.3-0.68,1.51-1.27c-0.45-0.43-1.17-0.62-1.92-0.44C24.95,17.18,24.39,17.68,24.19,18.26
		z"/>
	
		<linearGradient id="SVGID_00000047747098802932234770000014096019035859145391_" gradientUnits="userSpaceOnUse" x1="31.9963" y1="24.1086" x2="35.424" y2="24.1086">
		<stop  offset="0" style="stop-color:#FF00A4"/>
		<stop  offset="1" style="stop-color:#F79AD1"/>
	</linearGradient>
	<path style="fill:url(#SVGID_00000047747098802932234770000014096019035859145391_);" d="M32,24.52c0.45,0.43,1.17,0.62,1.92,0.44
		c0.75-0.18,1.3-0.68,1.51-1.27c-0.45-0.43-1.17-0.62-1.92-0.44S32.2,23.94,32,24.52z"/>
	
		<linearGradient id="SVGID_00000063624991077244910580000001964465094294931842_" gradientUnits="userSpaceOnUse" x1="18.9427" y1="21.3292" x2="22.3705" y2="21.3292">
		<stop  offset="0" style="stop-color:#FF00A4"/>
		<stop  offset="1" style="stop-color:#F79AD1"/>
	</linearGradient>
	<path style="fill:url(#SVGID_00000063624991077244910580000001964465094294931842_);" d="M18.94,21.74
		c0.45,0.43,1.17,0.62,1.92,0.44c0.75-0.18,1.3-0.68,1.51-1.27c-0.45-0.43-1.17-0.62-1.92-0.44C19.7,20.66,19.15,21.16,18.94,21.74z
		"/>
	
		<linearGradient id="SVGID_00000050638517223438702090000016345085179140844973_" gradientUnits="userSpaceOnUse" x1="64.1767" y1="2.194" x2="66.6989" y2="2.194">
		<stop  offset="0" style="stop-color:#FF00A4"/>
		<stop  offset="1" style="stop-color:#F79AD1"/>
	</linearGradient>
	<path style="fill:url(#SVGID_00000050638517223438702090000016345085179140844973_);" d="M64.18,1.33c0.08,0.4,0.45,0.88,0.99,1.25
		c0.55,0.38,1.13,0.54,1.53,0.47c-0.08-0.4-0.45-0.88-0.99-1.25C65.16,1.43,64.57,1.27,64.18,1.33z"/>
	
		<linearGradient id="SVGID_00000014607179871508985090000005042508595408573339_" gradientUnits="userSpaceOnUse" x1="62.3013" y1="4.7698" x2="65.2905" y2="4.7698">
		<stop  offset="0" style="stop-color:#FF00A4"/>
		<stop  offset="1" style="stop-color:#F79AD1"/>
	</linearGradient>
	<path style="fill:url(#SVGID_00000014607179871508985090000005042508595408573339_);" d="M62.3,5.08c0.23-0.33,0.75-0.64,1.4-0.78
		c0.65-0.14,1.25-0.07,1.59,0.15c-0.23,0.33-0.75,0.64-1.4,0.78C63.24,5.37,62.64,5.3,62.3,5.08z"/>
	
		<linearGradient id="SVGID_00000111887368802554515780000010274378647503555727_" gradientUnits="userSpaceOnUse" x1="81.8768" y1="4.2961" x2="83.6848" y2="4.2961">
		<stop  offset="0" style="stop-color:#FF00A4"/>
		<stop  offset="1" style="stop-color:#F79AD1"/>
	</linearGradient>
	<path style="fill:url(#SVGID_00000111887368802554515780000010274378647503555727_);" d="M81.88,3.68c-0.01,0.38,0.2,0.8,0.6,1.07
		c0.39,0.27,0.86,0.32,1.21,0.17c0.01-0.38-0.2-0.8-0.6-1.07S82.23,3.53,81.88,3.68z"/>
	
		<linearGradient id="SVGID_00000078723630709359449890000018186726542505369022_" gradientUnits="userSpaceOnUse" x1="61.9879" y1="2.8947" x2="63.7959" y2="2.8947">
		<stop  offset="0" style="stop-color:#FF00A4"/>
		<stop  offset="1" style="stop-color:#F79AD1"/>
	</linearGradient>
	<path style="fill:url(#SVGID_00000078723630709359449890000018186726542505369022_);" d="M61.99,2.28c-0.01,0.38,0.2,0.8,0.6,1.07
		c0.39,0.27,0.86,0.32,1.21,0.17c0.01-0.38-0.2-0.8-0.6-1.07C62.81,2.18,62.34,2.13,61.99,2.28z"/>
	
		<linearGradient id="SVGID_00000052817239137261985210000014153819556551412875_" gradientUnits="userSpaceOnUse" x1="41.6916" y1="6.4525" x2="43.4996" y2="6.4525">
		<stop  offset="0" style="stop-color:#FF00A4"/>
		<stop  offset="1" style="stop-color:#F79AD1"/>
	</linearGradient>
	<path style="fill:url(#SVGID_00000052817239137261985210000014153819556551412875_);" d="M41.69,5.84c-0.01,0.38,0.2,0.8,0.6,1.07
		c0.39,0.27,0.86,0.32,1.21,0.17c0.01-0.38-0.2-0.8-0.6-1.07C42.51,5.73,42.05,5.69,41.69,5.84z"/>
	
		<linearGradient id="SVGID_00000150799699967899220210000009015243069894614167_" gradientUnits="userSpaceOnUse" x1="52.4648" y1="21.9659" x2="56.3479" y2="21.9659">
		<stop  offset="0" style="stop-color:#FF00A4"/>
		<stop  offset="1" style="stop-color:#F79AD1"/>
	</linearGradient>
	<path style="fill:url(#SVGID_00000150799699967899220210000009015243069894614167_);" d="M52.46,21.67
		c0.28,0.63,0.95,1.14,1.79,1.27c0.85,0.13,1.63-0.15,2.09-0.67c-0.28-0.63-0.95-1.14-1.79-1.27S52.92,21.15,52.46,21.67z"/>
	
		<linearGradient id="SVGID_00000045582252075921025310000016545314666433334963_" gradientUnits="userSpaceOnUse" x1="40.1565" y1="16.4673" x2="44.0396" y2="16.4673">
		<stop  offset="0" style="stop-color:#FF00A4"/>
		<stop  offset="1" style="stop-color:#F79AD1"/>
	</linearGradient>
	<path style="fill:url(#SVGID_00000045582252075921025310000016545314666433334963_);" d="M40.16,16.17
		c0.28,0.63,0.95,1.14,1.79,1.27s1.63-0.15,2.09-0.67c-0.28-0.63-0.95-1.14-1.79-1.27C41.4,15.37,40.62,15.65,40.16,16.17z"/>
	
		<linearGradient id="SVGID_00000020394130766412762200000017864118570456470704_" gradientUnits="userSpaceOnUse" x1="49.6112" y1="23.2653" x2="51.8719" y2="23.2653">
		<stop  offset="0" style="stop-color:#FF00A4"/>
		<stop  offset="1" style="stop-color:#F79AD1"/>
	</linearGradient>
	<path style="fill:url(#SVGID_00000020394130766412762200000017864118570456470704_);" d="M49.92,21.48
		c-0.37,0.58-0.42,1.42-0.07,2.19s1.03,1.28,1.71,1.37c0.37-0.58,0.42-1.42,0.07-2.19C51.27,22.08,50.6,21.58,49.92,21.48z"/>
	
		<linearGradient id="SVGID_00000067195044290208387110000009566097610045532056_" gradientUnits="userSpaceOnUse" x1="45.0736" y1="24.1086" x2="48.0372" y2="24.1086">
		<stop  offset="0" style="stop-color:#FF00A4"/>
		<stop  offset="1" style="stop-color:#F79AD1"/>
	</linearGradient>
	<path style="fill:url(#SVGID_00000067195044290208387110000009566097610045532056_);" d="M48.01,22.79
		c-0.67-0.18-1.48,0.02-2.11,0.59s-0.91,1.36-0.8,2.04c0.67,0.18,1.48-0.02,2.11-0.59C47.85,24.26,48.12,23.47,48.01,22.79z"/>
	
		<linearGradient id="SVGID_00000146469532415515625910000009441286680063126169_" gradientUnits="userSpaceOnUse" x1="46.5554" y1="15.0195" x2="50.2634" y2="15.0195">
		<stop  offset="0" style="stop-color:#FF00A4"/>
		<stop  offset="1" style="stop-color:#F79AD1"/>
	</linearGradient>
	<path style="fill:url(#SVGID_00000146469532415515625910000009441286680063126169_);" d="M50.26,14.37
		c-0.55-0.42-1.37-0.56-2.18-0.27c-0.81,0.28-1.37,0.9-1.53,1.57c0.55,0.42,1.37,0.56,2.18,0.27S50.1,15.04,50.26,14.37z"/>
	
		<linearGradient id="SVGID_00000091000761444315948010000011817999011159975857_" gradientUnits="userSpaceOnUse" x1="22.3245" y1="24.1086" x2="25.2881" y2="24.1086">
		<stop  offset="0" style="stop-color:#FF00A4"/>
		<stop  offset="1" style="stop-color:#F79AD1"/>
	</linearGradient>
	<path style="fill:url(#SVGID_00000091000761444315948010000011817999011159975857_);" d="M25.26,22.79
		c-0.67-0.18-1.48,0.02-2.11,0.59s-0.91,1.36-0.8,2.04c0.67,0.18,1.48-0.02,2.11-0.59C25.1,24.26,25.37,23.47,25.26,22.79z"/>
	
		<linearGradient id="SVGID_00000174569769036756791510000014269419345885671086_" gradientUnits="userSpaceOnUse" x1="31.6314" y1="19.6474" x2="34.5949" y2="19.6474">
		<stop  offset="0" style="stop-color:#FF00A4"/>
		<stop  offset="1" style="stop-color:#F79AD1"/>
	</linearGradient>
	<path style="fill:url(#SVGID_00000174569769036756791510000014269419345885671086_);" d="M34.57,18.33
		c-0.67-0.18-1.48,0.02-2.11,0.59c-0.64,0.57-0.91,1.36-0.8,2.04c0.67,0.18,1.48-0.02,2.11-0.59C34.4,19.8,34.68,19.01,34.57,18.33z
		"/>
	
		<linearGradient id="SVGID_00000040571031808100008490000000126960822731101089_" gradientUnits="userSpaceOnUse" x1="32.1575" y1="14.2429" x2="36.0781" y2="14.2429">
		<stop  offset="0" style="stop-color:#FF00A4"/>
		<stop  offset="1" style="stop-color:#F79AD1"/>
	</linearGradient>
	<path style="fill:url(#SVGID_00000040571031808100008490000000126960822731101089_);" d="M36.08,14.11
		c-0.41-0.55-1.17-0.9-2.02-0.85c-0.85,0.06-1.56,0.5-1.9,1.11c0.41,0.55,1.17,0.9,2.02,0.85C35.04,15.16,35.74,14.72,36.08,14.11z"
		/>
	
		<linearGradient id="SVGID_00000181062035877294918790000015742346069786941365_" gradientUnits="userSpaceOnUse" x1="46.7657" y1="10.0944" x2="48.5737" y2="10.0944">
		<stop  offset="0" style="stop-color:#FF00A4"/>
		<stop  offset="1" style="stop-color:#F79AD1"/>
	</linearGradient>
	<path style="fill:url(#SVGID_00000181062035877294918790000015742346069786941365_);" d="M46.77,9.48c-0.01,0.38,0.2,0.8,0.6,1.07
		c0.39,0.27,0.86,0.32,1.21,0.17c0.01-0.38-0.2-0.8-0.6-1.07C47.58,9.38,47.12,9.33,46.77,9.48z"/>
	
		<linearGradient id="SVGID_00000174567259073507464310000014620394733547000983_" gradientUnits="userSpaceOnUse" x1="44.2842" y1="10.0944" x2="46.0922" y2="10.0944">
		<stop  offset="0" style="stop-color:#FF00A4"/>
		<stop  offset="1" style="stop-color:#F79AD1"/>
	</linearGradient>
	<path style="fill:url(#SVGID_00000174567259073507464310000014620394733547000983_);" d="M44.28,9.48c-0.01,0.38,0.2,0.8,0.6,1.07
		c0.39,0.27,0.86,0.32,1.21,0.17c0.01-0.38-0.2-0.8-0.6-1.07C45.1,9.38,44.64,9.33,44.28,9.48z"/>
	
		<linearGradient id="SVGID_00000133517948706048950530000001955569401933086650_" gradientUnits="userSpaceOnUse" x1="28.9879" y1="11.1326" x2="30.7959" y2="11.1326">
		<stop  offset="0" style="stop-color:#FF00A4"/>
		<stop  offset="1" style="stop-color:#F79AD1"/>
	</linearGradient>
	<path style="fill:url(#SVGID_00000133517948706048950530000001955569401933086650_);" d="M28.99,10.52c-0.01,0.38,0.2,0.8,0.6,1.07
		c0.39,0.27,0.86,0.32,1.21,0.17c0.01-0.38-0.2-0.8-0.6-1.07C29.81,10.41,29.34,10.37,28.99,10.52z"/>
	
		<linearGradient id="SVGID_00000083788455300918198370000001268439531930707107_" gradientUnits="userSpaceOnUse" x1="25.9029" y1="11.2448" x2="27.8069" y2="11.2448">
		<stop  offset="0" style="stop-color:#FF00A4"/>
		<stop  offset="1" style="stop-color:#F79AD1"/>
	</linearGradient>
	<path style="fill:url(#SVGID_00000083788455300918198370000001268439531930707107_);" d="M25.9,11.78
		c0.34,0.18,0.81,0.17,1.22-0.07c0.41-0.24,0.66-0.63,0.68-1.01c-0.34-0.18-0.81-0.17-1.22,0.07C26.17,11.01,25.93,11.4,25.9,11.78z
		"/>
	
		<linearGradient id="SVGID_00000085970212148773702750000015891431275483625349_" gradientUnits="userSpaceOnUse" x1="28.9879" y1="20.8363" x2="30.7959" y2="20.8363">
		<stop  offset="0" style="stop-color:#FF00A4"/>
		<stop  offset="1" style="stop-color:#F79AD1"/>
	</linearGradient>
	<path style="fill:url(#SVGID_00000085970212148773702750000015891431275483625349_);" d="M28.99,20.22c-0.01,0.38,0.2,0.8,0.6,1.07
		s0.86,0.32,1.21,0.17c0.01-0.38-0.2-0.8-0.6-1.07C29.81,20.12,29.34,20.07,28.99,20.22z"/>
	
		<linearGradient id="SVGID_00000009565361360349845770000005783767381752487081_" gradientUnits="userSpaceOnUse" x1="29.9119" y1="15.4686" x2="31.7198" y2="15.4686">
		<stop  offset="0" style="stop-color:#FF00A4"/>
		<stop  offset="1" style="stop-color:#F79AD1"/>
	</linearGradient>
	<path style="fill:url(#SVGID_00000009565361360349845770000005783767381752487081_);" d="M29.91,14.85c-0.01,0.38,0.2,0.8,0.6,1.07
		c0.39,0.27,0.86,0.32,1.21,0.17c0.01-0.38-0.2-0.8-0.6-1.07S30.27,14.7,29.91,14.85z"/>
	
		<linearGradient id="SVGID_00000077322477578354230330000003297823507205760408_" gradientUnits="userSpaceOnUse" x1="26.7314" y1="22.1821" x2="28.2191" y2="22.1821">
		<stop  offset="0" style="stop-color:#FF00A4"/>
		<stop  offset="1" style="stop-color:#F79AD1"/>
	</linearGradient>
	<path style="fill:url(#SVGID_00000077322477578354230330000003297823507205760408_);" d="M28.17,21.34
		c-0.38-0.04-0.81,0.13-1.12,0.5c-0.3,0.37-0.39,0.83-0.27,1.19c0.38,0.04,0.81-0.13,1.12-0.5S28.29,21.7,28.17,21.34z"/>
	
		<linearGradient id="SVGID_00000183210327660489341310000007139899006211612822_" gradientUnits="userSpaceOnUse" x1="22.753" y1="19.8679" x2="24.2407" y2="19.8679">
		<stop  offset="0" style="stop-color:#FF00A4"/>
		<stop  offset="1" style="stop-color:#F79AD1"/>
	</linearGradient>
	<path style="fill:url(#SVGID_00000183210327660489341310000007139899006211612822_);" d="M24.19,19.02
		c-0.38-0.04-0.81,0.13-1.12,0.5s-0.39,0.83-0.27,1.19c0.38,0.04,0.81-0.13,1.12-0.5C24.22,19.84,24.31,19.39,24.19,19.02z"/>
	
		<linearGradient id="SVGID_00000005981926885166024250000011475015125872013224_" gradientUnits="userSpaceOnUse" x1="43.6546" y1="15.3918" x2="45.4626" y2="15.3918">
		<stop  offset="0" style="stop-color:#FF00A4"/>
		<stop  offset="1" style="stop-color:#F79AD1"/>
	</linearGradient>
	<path style="fill:url(#SVGID_00000005981926885166024250000011475015125872013224_);" d="M43.65,14.77c-0.01,0.38,0.2,0.8,0.6,1.07
		c0.39,0.27,0.86,0.32,1.21,0.17c0.01-0.38-0.2-0.8-0.6-1.07C44.47,14.67,44.01,14.63,43.65,14.77z"/>
	
		<linearGradient id="SVGID_00000014615417053349763920000002344509147537451406_" gradientUnits="userSpaceOnUse" x1="39.2526" y1="20.9474" x2="41.0605" y2="20.9474">
		<stop  offset="0" style="stop-color:#FF00A4"/>
		<stop  offset="1" style="stop-color:#F79AD1"/>
	</linearGradient>
	<path style="fill:url(#SVGID_00000014615417053349763920000002344509147537451406_);" d="M39.25,20.33c-0.01,0.38,0.2,0.8,0.6,1.07
		c0.39,0.27,0.86,0.32,1.21,0.17c0.01-0.38-0.2-0.8-0.6-1.07S39.61,20.18,39.25,20.33z"/>
	
		<linearGradient id="SVGID_00000167393811181058776560000006912694146741415079_" gradientUnits="userSpaceOnUse" x1="16.4192" y1="23.6653" x2="18.2272" y2="23.6653">
		<stop  offset="0" style="stop-color:#FF00A4"/>
		<stop  offset="1" style="stop-color:#F79AD1"/>
	</linearGradient>
	<path style="fill:url(#SVGID_00000167393811181058776560000006912694146741415079_);" d="M16.42,23.05c-0.01,0.38,0.2,0.8,0.6,1.07
		c0.39,0.27,0.86,0.32,1.21,0.17c0.01-0.38-0.2-0.8-0.6-1.07C17.24,22.95,16.77,22.9,16.42,23.05z"/>
	
		<linearGradient id="SVGID_00000075848528622220070830000006832912181145035907_" gradientUnits="userSpaceOnUse" x1="38.224" y1="17.1076" x2="40.0319" y2="17.1076">
		<stop  offset="0" style="stop-color:#FF00A4"/>
		<stop  offset="1" style="stop-color:#F79AD1"/>
	</linearGradient>
	<path style="fill:url(#SVGID_00000075848528622220070830000006832912181145035907_);" d="M38.22,16.49c-0.01,0.38,0.2,0.8,0.6,1.07
		c0.39,0.27,0.86,0.32,1.21,0.17c0.01-0.38-0.2-0.8-0.6-1.07C39.04,16.39,38.58,16.34,38.22,16.49z"/>
	
		<linearGradient id="SVGID_00000052824114703730603440000014882888638791786645_" gradientUnits="userSpaceOnUse" x1="36.0781" y1="21.9659" x2="37.7427" y2="21.9659">
		<stop  offset="0" style="stop-color:#FF00A4"/>
		<stop  offset="1" style="stop-color:#F79AD1"/>
	</linearGradient>
	<path style="fill:url(#SVGID_00000052824114703730603440000014882888638791786645_);" d="M37.73,21.24c-0.37-0.1-0.82,0-1.18,0.31
		c-0.36,0.32-0.52,0.75-0.46,1.13c0.37,0.1,0.82,0,1.18-0.31C37.63,22.06,37.79,21.62,37.73,21.24z"/>
	
		<linearGradient id="SVGID_00000049934172066627442840000015900900084871496350_" gradientUnits="userSpaceOnUse" x1="35.6337" y1="17.7479" x2="37.2983" y2="17.7479">
		<stop  offset="0" style="stop-color:#FF00A4"/>
		<stop  offset="1" style="stop-color:#F79AD1"/>
	</linearGradient>
	<path style="fill:url(#SVGID_00000049934172066627442840000015900900084871496350_);" d="M37.29,17.02c-0.37-0.1-0.82,0-1.18,0.31
		c-0.36,0.32-0.52,0.75-0.46,1.13c0.37,0.1,0.82,0,1.18-0.31C37.18,17.84,37.34,17.4,37.29,17.02z"/>
	
		<linearGradient id="SVGID_00000078732763668172849500000001882704787937307790_" gradientUnits="userSpaceOnUse" x1="28.4205" y1="16.7808" x2="29.5554" y2="16.7808">
		<stop  offset="0" style="stop-color:#FF00A4"/>
		<stop  offset="1" style="stop-color:#F79AD1"/>
	</linearGradient>
	<path style="fill:url(#SVGID_00000078732763668172849500000001882704787937307790_);" d="M29.22,15.71
		c-0.36,0.13-0.67,0.49-0.77,0.95s0.03,0.91,0.3,1.19c0.36-0.13,0.67-0.49,0.77-0.95C29.62,16.43,29.49,15.99,29.22,15.71z"/>
	
		<linearGradient id="SVGID_00000103228207946480353300000017862894146342942593_" gradientUnits="userSpaceOnUse" x1="57.7526" y1="20.8363" x2="59.5606" y2="20.8363">
		<stop  offset="0" style="stop-color:#FF00A4"/>
		<stop  offset="1" style="stop-color:#F79AD1"/>
	</linearGradient>
	<path style="fill:url(#SVGID_00000103228207946480353300000017862894146342942593_);" d="M57.75,20.22c-0.01,0.38,0.2,0.8,0.6,1.07
		c0.39,0.27,0.86,0.32,1.21,0.17c0.01-0.38-0.2-0.8-0.6-1.07S58.11,20.07,57.75,20.22z"/>
	
		<linearGradient id="SVGID_00000181767556477619046660000009932687668834944942_" gradientUnits="userSpaceOnUse" x1="51.6561" y1="14.2429" x2="53.464" y2="14.2429">
		<stop  offset="0" style="stop-color:#FF00A4"/>
		<stop  offset="1" style="stop-color:#F79AD1"/>
	</linearGradient>
	<path style="fill:url(#SVGID_00000181767556477619046660000009932687668834944942_);" d="M51.66,13.63c-0.01,0.38,0.2,0.8,0.6,1.07
		c0.39,0.27,0.86,0.32,1.21,0.17c0.01-0.38-0.2-0.8-0.6-1.07C52.47,13.52,52.01,13.48,51.66,13.63z"/>
	
		<linearGradient id="SVGID_00000142157010619358366060000013308097691783672469_" gradientUnits="userSpaceOnUse" x1="20.0647" y1="26.1381" x2="21.2485" y2="26.1381">
		<stop  offset="0" style="stop-color:#FF00A4"/>
		<stop  offset="1" style="stop-color:#F79AD1"/>
	</linearGradient>
	<path style="fill:url(#SVGID_00000142157010619358366060000013308097691783672469_);" d="M21,25.1c-0.37,0.1-0.71,0.42-0.86,0.87
		c-0.15,0.45-0.07,0.91,0.18,1.21c0.37-0.1,0.71-0.42,0.86-0.87C21.32,25.86,21.24,25.4,21,25.1z"/>
	
		<linearGradient id="SVGID_00000109000217898942208160000010626834902468411308_" gradientUnits="userSpaceOnUse" x1="36.6916" y1="10.7951" x2="38.4996" y2="10.7951">
		<stop  offset="0" style="stop-color:#FF00A4"/>
		<stop  offset="1" style="stop-color:#F79AD1"/>
	</linearGradient>
	<path style="fill:url(#SVGID_00000109000217898942208160000010626834902468411308_);" d="M36.69,10.18c-0.01,0.38,0.2,0.8,0.6,1.07
		c0.39,0.27,0.86,0.32,1.21,0.17c0.01-0.38-0.2-0.8-0.6-1.07S37.05,10.03,36.69,10.18z"/>
	
		<linearGradient id="SVGID_00000132773481490126687620000002835012846604084384_" gradientUnits="userSpaceOnUse" x1="74.966" y1="10.1967" x2="76.7739" y2="10.1967">
		<stop  offset="0" style="stop-color:#FF00A4"/>
		<stop  offset="1" style="stop-color:#F79AD1"/>
	</linearGradient>
	<path style="fill:url(#SVGID_00000132773481490126687620000002835012846604084384_);" d="M74.97,9.58c-0.01,0.38,0.2,0.8,0.6,1.07
		c0.39,0.27,0.86,0.32,1.21,0.17c0.01-0.38-0.2-0.8-0.6-1.07C75.78,9.48,75.32,9.43,74.97,9.58z"/>
	
		<linearGradient id="SVGID_00000165199359651928685980000002967609382092386968_" gradientUnits="userSpaceOnUse" x1="71.0043" y1="5.3023" x2="72.8123" y2="5.3023">
		<stop  offset="0" style="stop-color:#FF00A4"/>
		<stop  offset="1" style="stop-color:#F79AD1"/>
	</linearGradient>
	<path style="fill:url(#SVGID_00000165199359651928685980000002967609382092386968_);" d="M71,4.68c-0.01,0.38,0.2,0.8,0.6,1.07
		c0.39,0.27,0.86,0.32,1.21,0.17c0.01-0.38-0.2-0.8-0.6-1.07C71.82,4.58,71.36,4.54,71,4.68z"/>
	
		<linearGradient id="SVGID_00000024684469720745229250000000053021276201742524_" gradientUnits="userSpaceOnUse" x1="68.3351" y1="5.3023" x2="69.8631" y2="5.3023">
		<stop  offset="0" style="stop-color:#FF00A4"/>
		<stop  offset="1" style="stop-color:#F79AD1"/>
	</linearGradient>
	<path style="fill:url(#SVGID_00000024684469720745229250000000053021276201742524_);" d="M69.82,4.48
		c-0.38-0.06-0.82,0.1-1.13,0.46s-0.42,0.81-0.32,1.18c0.38,0.06,0.82-0.1,1.13-0.46S69.93,4.85,69.82,4.48z"/>
	
		<linearGradient id="SVGID_00000166635300035395582900000006912530810271567514_" gradientUnits="userSpaceOnUse" x1="65.2916" y1="4.8817" x2="68.1063" y2="4.8817">
		<stop  offset="0" style="stop-color:#FF00A4"/>
		<stop  offset="1" style="stop-color:#F79AD1"/>
	</linearGradient>
	<path style="fill:url(#SVGID_00000166635300035395582900000006912530810271567514_);" d="M68.11,4.23
		c-0.45-0.27-1.1-0.31-1.72-0.02c-0.61,0.28-1.01,0.8-1.1,1.32c0.45,0.27,1.1,0.31,1.72,0.02C67.62,5.27,68.02,4.75,68.11,4.23z"/>
	
		<linearGradient id="SVGID_00000060738930386534515580000018065453261958087345_" gradientUnits="userSpaceOnUse" x1="67.8096" y1="2.3695" x2="69.6176" y2="2.3695">
		<stop  offset="0" style="stop-color:#FF00A4"/>
		<stop  offset="1" style="stop-color:#F79AD1"/>
	</linearGradient>
	<path style="fill:url(#SVGID_00000060738930386534515580000018065453261958087345_);" d="M67.81,1.75c-0.01,0.38,0.2,0.8,0.6,1.07
		c0.39,0.27,0.86,0.32,1.21,0.17c0.01-0.38-0.2-0.8-0.6-1.07C68.63,1.65,68.16,1.6,67.81,1.75z"/>
	
		<linearGradient id="SVGID_00000137832499681461409200000008861061121494680711_" gradientUnits="userSpaceOnUse" x1="70.2389" y1="2.4806" x2="72.2328" y2="2.4806">
		<stop  offset="0" style="stop-color:#FF00A4"/>
		<stop  offset="1" style="stop-color:#F79AD1"/>
	</linearGradient>
	<path style="fill:url(#SVGID_00000137832499681461409200000008861061121494680711_);" d="M70.24,2.03
		c0.06,0.38,0.34,0.75,0.77,0.95s0.9,0.16,1.22-0.05c-0.06-0.38-0.34-0.75-0.77-0.95C71.03,1.79,70.56,1.82,70.24,2.03z"/>
	
		<linearGradient id="SVGID_00000033348773017497022480000010121072187552679839_" gradientUnits="userSpaceOnUse" x1="73.0181" y1="2.5917" x2="74.4144" y2="2.5917">
		<stop  offset="0" style="stop-color:#FF00A4"/>
		<stop  offset="1" style="stop-color:#F79AD1"/>
	</linearGradient>
	<path style="fill:url(#SVGID_00000033348773017497022480000010121072187552679839_);" d="M73.02,1.9c-0.03,0.3,0.11,0.67,0.41,0.97
		c0.3,0.3,0.68,0.45,0.97,0.41c0.03-0.3-0.11-0.67-0.41-0.97S73.32,1.86,73.02,1.9z"/>
	
		<linearGradient id="SVGID_00000013176146596967604670000006091877495837081019_" gradientUnits="userSpaceOnUse" x1="54.0335" y1="9.2183" x2="56.5557" y2="9.2183">
		<stop  offset="0" style="stop-color:#FF00A4"/>
		<stop  offset="1" style="stop-color:#F79AD1"/>
	</linearGradient>
	<path style="fill:url(#SVGID_00000013176146596967604670000006091877495837081019_);" d="M54.03,8.36c0.08,0.4,0.45,0.88,0.99,1.25
		s1.13,0.54,1.53,0.47c-0.08-0.4-0.45-0.88-0.99-1.25S54.43,8.29,54.03,8.36z"/>
	
		<linearGradient id="SVGID_00000139981591499316972640000001015831418072691088_" gradientUnits="userSpaceOnUse" x1="57.1252" y1="9.2183" x2="58.9331" y2="9.2183">
		<stop  offset="0" style="stop-color:#FF00A4"/>
		<stop  offset="1" style="stop-color:#F79AD1"/>
	</linearGradient>
	<path style="fill:url(#SVGID_00000139981591499316972640000001015831418072691088_);" d="M57.13,8.6c-0.01,0.38,0.2,0.8,0.6,1.07
		c0.39,0.27,0.86,0.32,1.21,0.17c0.01-0.38-0.2-0.8-0.6-1.07S57.48,8.45,57.13,8.6z"/>
	
		<linearGradient id="SVGID_00000024681499218251811900000011892636490393909649_" gradientUnits="userSpaceOnUse" x1="45.0024" y1="6.2044" x2="47.8892" y2="6.2044">
		<stop  offset="0" style="stop-color:#FF00A4"/>
		<stop  offset="1" style="stop-color:#F79AD1"/>
	</linearGradient>
	<path style="fill:url(#SVGID_00000024681499218251811900000011892636490393909649_);" d="M45.01,4.77
		c-0.07,0.62,0.23,1.39,0.85,2.02s1.4,0.92,2.02,0.85c0.07-0.62-0.23-1.39-0.85-2.02C46.4,5,45.63,4.7,45.01,4.77z"/>
	
		<linearGradient id="SVGID_00000137848814219838283940000010486317311964726460_" gradientUnits="userSpaceOnUse" x1="50.3116" y1="8.2948" x2="52.5601" y2="8.2948">
		<stop  offset="0" style="stop-color:#FF00A4"/>
		<stop  offset="1" style="stop-color:#F79AD1"/>
	</linearGradient>
	<path style="fill:url(#SVGID_00000137848814219838283940000010486317311964726460_);" d="M50.41,7.27c-0.2,0.59-0.09,1.25,0.35,1.7
		c0.45,0.45,1.11,0.56,1.7,0.35c0.2-0.59,0.09-1.25-0.35-1.7C51.66,7.18,51,7.07,50.41,7.27z"/>
	
		<linearGradient id="SVGID_00000169532263407534026880000002211785916426347701_" gradientUnits="userSpaceOnUse" x1="60.4585" y1="8.9219" x2="62.4524" y2="8.9219">
		<stop  offset="0" style="stop-color:#FF00A4"/>
		<stop  offset="1" style="stop-color:#F79AD1"/>
	</linearGradient>
	<path style="fill:url(#SVGID_00000169532263407534026880000002211785916426347701_);" d="M60.46,8.47
		c0.06,0.38,0.34,0.75,0.77,0.95s0.9,0.16,1.22-0.05c-0.06-0.38-0.34-0.75-0.77-0.95S60.78,8.26,60.46,8.47z"/>
	
		<linearGradient id="SVGID_00000132795126161497709040000014100254989832808854_" gradientUnits="userSpaceOnUse" x1="63.2376" y1="9.0331" x2="64.6339" y2="9.0331">
		<stop  offset="0" style="stop-color:#FF00A4"/>
		<stop  offset="1" style="stop-color:#F79AD1"/>
	</linearGradient>
	<path style="fill:url(#SVGID_00000132795126161497709040000014100254989832808854_);" d="M63.24,8.34
		c-0.03,0.3,0.11,0.67,0.41,0.97c0.3,0.3,0.68,0.45,0.97,0.41c0.03-0.3-0.11-0.67-0.41-0.97C63.92,8.45,63.54,8.31,63.24,8.34z"/>
	
		<linearGradient id="SVGID_00000113328719282559159240000017161187863810739589_" gradientUnits="userSpaceOnUse" x1="56.5557" y1="17.1076" x2="58.5169" y2="17.1076">
		<stop  offset="0" style="stop-color:#FF00A4"/>
		<stop  offset="1" style="stop-color:#F79AD1"/>
	</linearGradient>
	<path style="fill:url(#SVGID_00000113328719282559159240000017161187863810739589_);" d="M58.52,17.59
		c-0.04-0.38-0.31-0.76-0.74-0.97c-0.43-0.21-0.89-0.19-1.22,0c0.04,0.38,0.31,0.76,0.74,0.97C57.72,17.81,58.19,17.79,58.52,17.59z
		"/>
	
		<linearGradient id="SVGID_00000062181987452109249930000004435820025873206431_" gradientUnits="userSpaceOnUse" x1="63.4874" y1="15.3529" x2="65.4486" y2="15.3529">
		<stop  offset="0" style="stop-color:#FF00A4"/>
		<stop  offset="1" style="stop-color:#F79AD1"/>
	</linearGradient>
	<path style="fill:url(#SVGID_00000062181987452109249930000004435820025873206431_);" d="M65.45,15.84
		c-0.04-0.38-0.31-0.76-0.74-0.97c-0.43-0.21-0.89-0.19-1.22,0c0.04,0.38,0.31,0.76,0.74,0.97C64.65,16.05,65.12,16.04,65.45,15.84z
		"/>
	
		<linearGradient id="SVGID_00000078007536277701880970000017640889550031009935_" gradientUnits="userSpaceOnUse" x1="58.3461" y1="15.7052" x2="62.5709" y2="15.7052">
		<stop  offset="0" style="stop-color:#FF00A4"/>
		<stop  offset="1" style="stop-color:#F79AD1"/>
	</linearGradient>
	<path style="fill:url(#SVGID_00000078007536277701880970000017640889550031009935_);" d="M62.57,16.33
		c-0.24-0.68-0.92-1.29-1.84-1.56c-0.92-0.27-1.82-0.12-2.39,0.32c0.24,0.68,0.92,1.29,1.84,1.56C61.1,16.92,62,16.76,62.57,16.33z"
		/>
	
		<linearGradient id="SVGID_00000159470043101169538580000008136613140138194585_" gradientUnits="userSpaceOnUse" x1="31.6314" y1="10.4319" x2="35.8562" y2="10.4319">
		<stop  offset="0" style="stop-color:#FF00A4"/>
		<stop  offset="1" style="stop-color:#F79AD1"/>
	</linearGradient>
	<path style="fill:url(#SVGID_00000159470043101169538580000008136613140138194585_);" d="M35.86,11.05
		c-0.24-0.68-0.92-1.29-1.84-1.56s-1.82-0.12-2.39,0.32c0.24,0.68,0.92,1.29,1.84,1.56C34.39,11.64,35.29,11.49,35.86,11.05z"/>
	
		<linearGradient id="SVGID_00000052791528265122762810000018215667928211707838_" gradientUnits="userSpaceOnUse" x1="39.1279" y1="10.0944" x2="43.3527" y2="10.0944">
		<stop  offset="0" style="stop-color:#FF00A4"/>
		<stop  offset="1" style="stop-color:#F79AD1"/>
	</linearGradient>
	<path style="fill:url(#SVGID_00000052791528265122762810000018215667928211707838_);" d="M43.35,10.72
		c-0.24-0.68-0.92-1.29-1.84-1.56c-0.92-0.27-1.82-0.12-2.39,0.32c0.24,0.68,0.92,1.29,1.84,1.56S42.79,11.15,43.35,10.72z"/>
	
		<linearGradient id="SVGID_00000145777355063407524770000014949746517369707153_" gradientUnits="userSpaceOnUse" x1="75.0975" y1="2.3695" x2="77.924" y2="2.3695">
		<stop  offset="0" style="stop-color:#FF00A4"/>
		<stop  offset="1" style="stop-color:#F79AD1"/>
	</linearGradient>
	<path style="fill:url(#SVGID_00000145777355063407524770000014949746517369707153_);" d="M75.1,1.24c0.01,0.55,0.35,1.2,0.97,1.69
		c0.62,0.49,1.33,0.69,1.86,0.58c-0.01-0.55-0.35-1.2-0.97-1.69C76.34,1.32,75.63,1.12,75.1,1.24z"/>
	
		<linearGradient id="SVGID_00000155858803043972916350000014494554582269337260_" gradientUnits="userSpaceOnUse" x1="79.3451" y1="3.478" x2="80.8832" y2="3.478">
		<stop  offset="0" style="stop-color:#FF00A4"/>
		<stop  offset="1" style="stop-color:#F79AD1"/>
	</linearGradient>
	<path style="fill:url(#SVGID_00000155858803043972916350000014494554582269337260_);" d="M79.38,2.67
		c-0.1,0.37,0.01,0.82,0.33,1.18s0.76,0.51,1.14,0.45c0.1-0.37-0.01-0.82-0.33-1.18C80.2,2.76,79.76,2.6,79.38,2.67z"/>
	
		<linearGradient id="SVGID_00000023280465096227136320000012800952490807246991_" gradientUnits="userSpaceOnUse" x1="98.8128" y1="69.97" x2="107.5419" y2="69.97">
		<stop  offset="0" style="stop-color:#FF00A4"/>
		<stop  offset="1" style="stop-color:#F79AD1"/>
	</linearGradient>
	<path style="fill:url(#SVGID_00000023280465096227136320000012800952490807246991_);" d="M98.81,68.54
		c0.46,1.42,1.83,2.74,3.73,3.37s3.79,0.37,5-0.5c-0.46-1.42-1.83-2.74-3.73-3.37S100.02,67.66,98.81,68.54z"/>
</g>
</svg>
