<?xml version="1.0" encoding="utf-8"?>
<!-- Generator: Adobe Illustrator 26.0.2, SVG Export Plug-In . SVG Version: 6.00 Build 0)  -->
<svg version="1.1" id="Warstwa_1" xmlns="http://www.w3.org/2000/svg" xmlns:xlink="http://www.w3.org/1999/xlink" x="0px" y="0px"
	 viewBox="0 0 136.29 202.33" style="enable-background:new 0 0 136.29 202.33;" xml:space="preserve">
<style type="text/css">
	.st0{fill:#FFFFFF;}
</style>
<g>
	<path class="st0" d="M47.31,62.53h3.07v3.07h-3.07V62.53z M47.31,66.15h3.07v3.07h-3.07V66.15z M43.47,62.53h3.07v3.07h-3.07V62.53
		z M43.47,66.15h3.07v3.07h-3.07V66.15z M51.56,92.72c-3.06-0.42-6.14-0.2-9.26-0.38V80.79h9.26V92.72z M107.36,130.02
		c0.01,0.01,0.02,0.01,0.02,0.02c0.31-0.24,0.62-0.49,0.92-0.74C108,129.54,107.68,129.78,107.36,130.02z M54.34,124.44
		c-9.05-0.87-15.32-3.82-20.36-6.19c-2.3-1.08-4.29-2.01-6.11-2.54c-8.17-2.38-10.68-2.44-17.41-2.59
		c-0.77-0.02-1.59-0.04-2.48-0.06H7.97c0.36,0.53,0.72,1.06,1.09,1.58c0.56,0.79,1.14,1.57,1.74,2.33c0.28,0.38,0.57,0.74,0.87,1.11
		c0.12,0.15,0.24,0.31,0.37,0.46c0.32,0.39,0.65,0.79,0.99,1.17c0.14,0.17,0.28,0.34,0.43,0.5c0.3,0.35,0.61,0.69,0.93,1.03
		c0.15,0.18,0.31,0.35,0.47,0.52c0.45,0.48,0.9,0.96,1.37,1.43c0.39,0.4,0.79,0.79,1.19,1.17c0.01,0,0.01,0,0.01,0
		c4.3-0.5,8.32,2.26,12.17,3.84c4.12,1.91,8.33,3.62,12.72,4.31c8.41,1.33,16.9-0.48,24.39-4.39
		C62.67,126.2,58.5,124.84,54.34,124.44z M91.93,102.36c-5.54-2.57-11.29-4.72-17.21-6.45c-3.17-0.93-6.39-1.73-9.66-2.41V71.22
		h7.96L46.83,49.03L20.64,71.22h7.96v20.1c-8.35,0.71-16.47,2.22-24.3,4.51c-0.51,0.14-1,0.28-1.49,0.44
		C1.87,96.55,0.93,96.85,0,97.16c0.29,0.88,0.58,1.74,0.9,2.59c7.44-1.33,15.07-2,22.68-2c12.26,0,24.39,1.73,36.06,5.13
		c6.03,1.74,11.94,3.93,17.56,6.5c7,3.19,13.71,7,20.08,11.37c3.74-2.93,6.77-6.5,9.7-10.2C102.06,107.42,97.24,104.8,91.93,102.36z
		 M76.17,111.66c-5.52-2.52-11.31-4.67-17.22-6.38c-11.45-3.34-23.35-5.03-35.37-5.03c-7.23,0-14.48,0.62-21.56,1.84
		c1.23,2.87,2.68,5.69,4.33,8.42c1.57,0.05,2.93,0.08,4.17,0.11c6.96,0.16,9.57,0.22,18.05,2.69c2.01,0.58,4.07,1.55,6.47,2.68
		c4.87,2.28,10.93,5.13,19.54,5.96c1.76,0.17,3.51,0.5,5.26,0.96c-1.07-0.78-2.02-1.45-2.69-1.9l-1.86-1.33
		c-0.84-0.64-1.28-1.33-1.78-1.87c-0.31-0.39-0.73-0.76-0.7-1.42c0.05-0.74,0.79-1.14,1.37-1.11c2.75,0.13,5.31,0.56,7.99,1.14
		c6.03,1.69,11.65,3.65,17.87,4.42c1.57,0.25,10.02,1.53,11.43,1.79c1.33,0.28,2.54,0.31,3.68-0.32
		C89.12,118.23,82.77,114.67,76.17,111.66z"/>
</g>
<g>
	<path class="st0" d="M20.96,176.55h-2l-8.04-12.19v12.19h-2v-15.33h2l8.04,12.17v-12.17h2V176.55z"/>
	<path class="st0" d="M24.43,162.16c-0.26-0.26-0.4-0.58-0.4-0.97s0.13-0.7,0.4-0.97c0.26-0.26,0.59-0.4,0.97-0.4
		c0.37,0,0.68,0.13,0.93,0.4s0.38,0.59,0.38,0.97s-0.13,0.7-0.38,0.97c-0.26,0.26-0.57,0.4-0.93,0.4
		C25.02,162.56,24.7,162.43,24.43,162.16z M26.37,164.51v12.04h-2v-12.04H26.37z"/>
	<path class="st0" d="M40.69,171.28h-9.62c0.07,1.19,0.48,2.11,1.22,2.78c0.74,0.67,1.64,1,2.69,1c0.86,0,1.59-0.2,2.16-0.6
		c0.58-0.4,0.99-0.94,1.22-1.62h2.15c-0.32,1.16-0.97,2.1-1.93,2.82c-0.97,0.72-2.17,1.09-3.6,1.09c-1.14,0-2.16-0.26-3.06-0.77
		c-0.9-0.51-1.61-1.24-2.12-2.19c-0.51-0.95-0.77-2.04-0.77-3.29c0-1.24,0.25-2.34,0.75-3.27c0.5-0.94,1.2-1.66,2.1-2.16
		c0.9-0.5,1.94-0.76,3.11-0.76c1.14,0,2.15,0.25,3.03,0.75c0.88,0.5,1.56,1.18,2.03,2.05c0.48,0.87,0.71,1.86,0.71,2.95
		C40.76,170.45,40.73,170.86,40.69,171.28z M38.19,167.69c-0.34-0.55-0.79-0.97-1.37-1.25c-0.58-0.29-1.22-0.43-1.92-0.43
		c-1.01,0-1.87,0.32-2.58,0.97c-0.71,0.64-1.12,1.54-1.22,2.68h7.6C38.69,168.89,38.52,168.24,38.19,167.69z"/>
	<path class="st0" d="M47.19,165c0.79-0.45,1.69-0.68,2.7-0.68c1.08,0,2.06,0.26,2.92,0.77s1.55,1.23,2.04,2.16
		c0.5,0.93,0.75,2.01,0.75,3.24c0,1.22-0.25,2.3-0.75,3.25c-0.5,0.95-1.18,1.69-2.05,2.22s-1.84,0.79-2.91,0.79
		c-1.04,0-1.95-0.23-2.73-0.68c-0.78-0.45-1.37-1.03-1.77-1.74v2.22h-2V160.3h2v6.46C45.8,166.04,46.4,165.45,47.19,165z
		 M53.02,168.12c-0.37-0.67-0.86-1.19-1.48-1.54c-0.62-0.35-1.31-0.53-2.05-0.53c-0.73,0-1.41,0.18-2.03,0.54
		c-0.62,0.36-1.12,0.88-1.49,1.56c-0.37,0.68-0.56,1.47-0.56,2.36c0,0.91,0.19,1.7,0.56,2.38c0.37,0.68,0.87,1.2,1.49,1.56
		c0.62,0.36,1.3,0.54,2.03,0.54c0.75,0,1.43-0.18,2.05-0.54c0.62-0.36,1.12-0.88,1.48-1.56c0.37-0.68,0.55-1.48,0.55-2.41
		C53.56,169.58,53.38,168.79,53.02,168.12z"/>
	<path class="st0" d="M58.31,162.16c-0.26-0.26-0.4-0.58-0.4-0.97s0.13-0.7,0.4-0.97s0.58-0.4,0.97-0.4c0.37,0,0.68,0.13,0.93,0.4
		c0.26,0.26,0.38,0.59,0.38,0.97s-0.13,0.7-0.38,0.97c-0.26,0.26-0.57,0.4-0.93,0.4C58.9,162.56,58.57,162.43,58.31,162.16z
		 M60.24,164.51v12.04h-2v-12.04H60.24z"/>
	<path class="st0" d="M63.65,167.25c0.5-0.93,1.18-1.65,2.05-2.16c0.87-0.51,1.84-0.77,2.91-0.77c1.05,0,1.97,0.23,2.75,0.68
		c0.78,0.45,1.35,1.03,1.74,1.71v-2.2h2.02v12.04H73.1v-2.24c-0.4,0.7-0.99,1.29-1.77,1.75c-0.78,0.46-1.7,0.69-2.74,0.69
		c-1.07,0-2.04-0.26-2.9-0.79s-1.54-1.27-2.04-2.22c-0.5-0.95-0.75-2.04-0.75-3.25C62.9,169.26,63.15,168.18,63.65,167.25z
		 M72.55,168.14c-0.37-0.67-0.86-1.19-1.48-1.55c-0.62-0.36-1.31-0.54-2.05-0.54c-0.75,0-1.43,0.18-2.04,0.53s-1.11,0.86-1.47,1.54
		s-0.55,1.46-0.55,2.37c0,0.92,0.18,1.72,0.55,2.41c0.37,0.68,0.86,1.2,1.47,1.56c0.62,0.36,1.3,0.54,2.04,0.54
		c0.75,0,1.43-0.18,2.05-0.54c0.62-0.36,1.12-0.88,1.48-1.56c0.37-0.68,0.55-1.48,0.55-2.38C73.1,169.6,72.91,168.81,72.55,168.14z"
		/>
	<path class="st0" d="M87.93,165.62c0.91,0.89,1.36,2.16,1.36,3.83v7.1h-1.98v-6.81c0-1.2-0.3-2.12-0.9-2.76
		c-0.6-0.64-1.42-0.96-2.46-0.96c-1.05,0-1.89,0.33-2.52,0.99c-0.62,0.66-0.93,1.62-0.93,2.88v6.66h-2v-12.04h2v1.71
		c0.4-0.62,0.93-1.09,1.62-1.43s1.43-0.5,2.25-0.5C85.83,164.3,87.02,164.74,87.93,165.62z M86.01,161.11l-4.68,2.5v-1.49l4.68-2.75
		V161.11z"/>
	<path class="st0" d="M94.34,176.28c-0.73-0.32-1.31-0.75-1.74-1.32c-0.42-0.56-0.66-1.21-0.7-1.94h2.07
		c0.06,0.6,0.34,1.09,0.85,1.47c0.51,0.38,1.17,0.57,1.99,0.57c0.76,0,1.36-0.17,1.8-0.5s0.66-0.76,0.66-1.27
		c0-0.53-0.23-0.92-0.7-1.18c-0.47-0.26-1.19-0.51-2.17-0.76c-0.89-0.23-1.62-0.47-2.19-0.71c-0.56-0.24-1.05-0.6-1.45-1.08
		c-0.4-0.48-0.6-1.1-0.6-1.88c0-0.62,0.18-1.18,0.55-1.69s0.89-0.92,1.56-1.22c0.67-0.3,1.44-0.45,2.31-0.45
		c1.33,0,2.41,0.34,3.23,1.01s1.26,1.6,1.32,2.77h-2c-0.04-0.63-0.3-1.13-0.76-1.52c-0.46-0.38-1.08-0.57-1.86-0.57
		c-0.72,0-1.29,0.15-1.71,0.46s-0.64,0.71-0.64,1.21c0,0.4,0.13,0.72,0.38,0.98c0.26,0.26,0.58,0.46,0.97,0.62
		c0.39,0.15,0.93,0.33,1.61,0.52c0.86,0.23,1.57,0.46,2.11,0.69c0.54,0.23,1.01,0.57,1.39,1.02c0.39,0.45,0.59,1.05,0.6,1.78
		c0,0.66-0.18,1.25-0.55,1.78c-0.37,0.53-0.88,0.94-1.55,1.24c-0.67,0.3-1.43,0.45-2.3,0.45C95.9,176.75,95.07,176.59,94.34,176.28z
		"/>
	<path class="st0" d="M110.75,176.55l-4.72-5.32v5.32h-2V160.3h2v9.56l4.64-5.34h2.79l-5.67,6l5.69,6.04H110.75z"/>
	<path class="st0" d="M115.34,167.25c0.5-0.93,1.18-1.65,2.05-2.16c0.87-0.51,1.84-0.77,2.91-0.77c1.05,0,1.97,0.23,2.75,0.68
		c0.78,0.45,1.35,1.03,1.74,1.71v-2.2h2.02v12.04h-2.02v-2.24c-0.4,0.7-0.99,1.29-1.77,1.75c-0.78,0.46-1.7,0.69-2.74,0.69
		c-1.07,0-2.04-0.26-2.9-0.79s-1.54-1.27-2.04-2.22c-0.5-0.95-0.75-2.04-0.75-3.25C114.6,169.26,114.85,168.18,115.34,167.25z
		 M124.24,168.14c-0.37-0.67-0.86-1.19-1.48-1.55c-0.62-0.36-1.31-0.54-2.05-0.54c-0.75,0-1.43,0.18-2.04,0.53s-1.11,0.86-1.47,1.54
		s-0.55,1.46-0.55,2.37c0,0.92,0.18,1.72,0.55,2.41c0.37,0.68,0.86,1.2,1.47,1.56c0.62,0.36,1.3,0.54,2.04,0.54
		c0.75,0,1.43-0.18,2.05-0.54c0.62-0.36,1.12-0.88,1.48-1.56c0.37-0.68,0.55-1.48,0.55-2.38
		C124.79,169.6,124.61,168.81,124.24,168.14z"/>
	<path class="st0" d="M44.01,185.79c1.22,0.62,2.16,1.51,2.81,2.67s0.98,2.52,0.98,4.09s-0.33,2.93-0.98,4.08s-1.59,2.03-2.81,2.64
		c-1.22,0.61-2.67,0.91-4.34,0.91H34.9v-15.31h4.77C41.34,184.86,42.79,185.17,44.01,185.79z M44.2,196.95
		c1.04-1.05,1.56-2.52,1.56-4.4c0-1.9-0.53-3.39-1.57-4.46s-2.55-1.6-4.51-1.6H36.9v12.04h2.77C41.65,198.52,43.15,198,44.2,196.95z
		"/>
	<path class="st0" d="M52.62,199.6c-0.92-0.51-1.63-1.24-2.15-2.19c-0.52-0.95-0.78-2.04-0.78-3.29c0-1.23,0.27-2.32,0.8-3.26
		c0.53-0.95,1.26-1.67,2.19-2.18c0.92-0.5,1.96-0.76,3.1-0.76s2.17,0.25,3.1,0.76c0.92,0.51,1.65,1.23,2.19,2.16
		c0.53,0.94,0.8,2.03,0.8,3.27c0,1.25-0.28,2.34-0.82,3.29c-0.55,0.94-1.29,1.67-2.23,2.19c-0.94,0.51-1.98,0.77-3.12,0.77
		C54.56,200.37,53.54,200.11,52.62,199.6z M57.71,198.11c0.63-0.34,1.14-0.84,1.53-1.52c0.39-0.67,0.58-1.49,0.58-2.46
		s-0.19-1.79-0.57-2.46c-0.38-0.67-0.88-1.18-1.49-1.5c-0.62-0.33-1.28-0.5-2-0.5c-0.73,0-1.4,0.17-2.01,0.5
		c-0.61,0.33-1.09,0.83-1.46,1.5s-0.55,1.49-0.55,2.46c0,0.98,0.18,1.81,0.54,2.48c0.36,0.67,0.84,1.18,1.44,1.51
		c0.6,0.33,1.26,0.49,1.98,0.49S57.08,198.44,57.71,198.11z"/>
	<path class="st0" d="M66.49,183.91v16.26h-2v-16.26H66.49z"/>
	<path class="st0" d="M69.97,185.78c-0.26-0.26-0.4-0.58-0.4-0.97s0.13-0.7,0.4-0.97s0.58-0.4,0.97-0.4c0.37,0,0.68,0.13,0.93,0.4
		c0.26,0.26,0.38,0.59,0.38,0.97s-0.13,0.7-0.38,0.97c-0.26,0.26-0.57,0.4-0.93,0.4C70.55,186.18,70.23,186.05,69.97,185.78z
		 M71.9,188.13v12.04h-2v-12.04H71.9z"/>
	<path class="st0" d="M84.73,189.24c0.91,0.89,1.36,2.16,1.36,3.83v7.1h-1.98v-6.81c0-1.2-0.3-2.12-0.9-2.76
		c-0.6-0.64-1.42-0.96-2.46-0.96c-1.05,0-1.89,0.33-2.52,0.99c-0.62,0.66-0.93,1.62-0.93,2.88v6.66h-2v-12.04h2v1.71
		c0.4-0.62,0.93-1.09,1.62-1.43s1.43-0.5,2.25-0.5C82.64,187.91,83.82,188.36,84.73,189.24z"/>
	<path class="st0" d="M89.37,190.87c0.5-0.93,1.18-1.65,2.05-2.16c0.87-0.51,1.84-0.77,2.91-0.77c1.05,0,1.97,0.23,2.75,0.68
		c0.78,0.45,1.35,1.03,1.74,1.71v-2.2h2.02v12.04h-2.02v-2.24c-0.4,0.7-0.99,1.29-1.77,1.75c-0.78,0.46-1.7,0.69-2.74,0.69
		c-1.07,0-2.04-0.26-2.9-0.79s-1.54-1.27-2.04-2.22c-0.5-0.95-0.75-2.04-0.75-3.25C88.62,192.88,88.87,191.8,89.37,190.87z
		 M98.26,191.76c-0.37-0.67-0.86-1.19-1.48-1.55c-0.62-0.36-1.31-0.54-2.05-0.54c-0.75,0-1.43,0.18-2.04,0.53s-1.11,0.86-1.47,1.54
		s-0.55,1.46-0.55,2.37c0,0.92,0.18,1.72,0.55,2.41c0.37,0.68,0.86,1.2,1.47,1.56c0.62,0.36,1.3,0.54,2.04,0.54
		c0.75,0,1.43-0.18,2.05-0.54c0.62-0.36,1.12-0.88,1.48-1.56c0.37-0.68,0.55-1.48,0.55-2.38C98.81,193.22,98.63,192.43,98.26,191.76
		z"/>
</g>
<g>
	<path class="st0" d="M76.17,111.66c6.6,3.01,12.95,6.57,18.98,10.65c-1.14,0.63-2.35,0.6-3.68,0.32
		c-1.41-0.26-9.86-1.54-11.43-1.79c-6.22-0.77-11.84-2.73-17.87-4.42c-2.68-0.58-5.24-1.01-7.99-1.14
		c-0.58-0.03-1.32,0.37-1.37,1.11c-0.03,0.66,0.39,1.03,0.7,1.42c0.5,0.54,0.94,1.23,1.78,1.87l1.86,1.33
		c0.67,0.45,1.62,1.12,2.69,1.9c-1.75-0.46-3.5-0.79-5.26-0.96c-8.61-0.83-14.67-3.68-19.54-5.96c-2.4-1.13-4.46-2.1-6.47-2.68
		c-8.48-2.47-11.09-2.53-18.05-2.69c-1.24-0.03-2.6-0.06-4.17-0.11c-1.65-2.73-3.1-5.55-4.33-8.42c7.08-1.22,14.33-1.84,21.56-1.84
		c12.02,0,23.92,1.69,35.37,5.03C64.86,106.99,70.65,109.14,76.17,111.66z"/>
	<path class="st0" d="M29.6,128.2c-3.85-1.58-7.87-4.34-12.17-3.84c0,0,0,0-0.01,0c-0.4-0.38-0.8-0.77-1.19-1.17
		c-0.47-0.47-0.92-0.95-1.37-1.43c-0.16-0.17-0.32-0.34-0.47-0.52c-0.32-0.34-0.63-0.68-0.93-1.03c-0.15-0.16-0.29-0.33-0.43-0.5
		c-0.34-0.38-0.67-0.78-0.99-1.17c-0.13-0.15-0.25-0.31-0.37-0.46c-0.3-0.37-0.59-0.73-0.87-1.11c-0.6-0.76-1.18-1.54-1.74-2.33
		c-0.37-0.52-0.73-1.05-1.09-1.58h0.01c0.89,0.02,1.71,0.04,2.48,0.06c6.73,0.15,9.24,0.21,17.41,2.59
		c1.82,0.53,3.81,1.46,6.11,2.54c5.04,2.37,11.31,5.32,20.36,6.19c4.16,0.4,8.33,1.76,12.37,3.68c-7.49,3.91-15.98,5.72-24.39,4.39
		C37.93,131.82,33.72,130.11,29.6,128.2z"/>
	<path class="st0" d="M27.33,133.2c-3.17-2.02-6.18-4.35-8.98-6.89c0.1-0.01,0.21-0.01,0.31,0
		C21.35,128.83,24.25,131.14,27.33,133.2z"/>
	<path class="st0" d="M107.36,130.02c0.01,0.01,0.02,0.01,0.02,0.02c0.31-0.24,0.62-0.49,0.92-0.74
		C108,129.54,107.68,129.78,107.36,130.02z M18.66,126.31c-0.1-0.01-0.21-0.01-0.31,0c2.8,2.54,5.81,4.87,8.98,6.89
		C24.25,131.14,21.35,128.83,18.66,126.31z M7.98,113.06H7.97c0.36,0.53,0.72,1.06,1.09,1.58C8.69,114.12,8.33,113.59,7.98,113.06z"
		/>
</g>
<g>
	<path class="st0" d="M29.6,128.2c-3.85-1.58-7.87-4.34-12.17-3.84c0,0,0,0-0.01,0c-0.4-0.38-0.8-0.77-1.19-1.17
		c-0.47-0.47-0.92-0.95-1.37-1.43c-0.16-0.17-0.32-0.34-0.47-0.52c-0.32-0.34-0.63-0.68-0.93-1.03c-0.15-0.16-0.29-0.33-0.43-0.5
		c-0.34-0.38-0.67-0.78-0.99-1.17c-0.13-0.15-0.25-0.31-0.37-0.46c-0.3-0.37-0.59-0.73-0.87-1.11c-0.6-0.76-1.18-1.54-1.74-2.33
		c-0.37-0.52-0.73-1.05-1.09-1.58h0.01c0.89,0.02,1.71,0.04,2.48,0.06c6.73,0.15,9.24,0.21,17.41,2.59
		c1.82,0.53,3.81,1.46,6.11,2.54c5.04,2.37,11.31,5.32,20.36,6.19c4.16,0.4,8.33,1.76,12.37,3.68c-7.49,3.91-15.98,5.72-24.39,4.39
		C37.93,131.82,33.72,130.11,29.6,128.2z"/>
	<path class="st0" d="M27.33,133.2c-3.17-2.02-6.18-4.35-8.98-6.89c0.1-0.01,0.21-0.01,0.31,0
		C21.35,128.83,24.25,131.14,27.33,133.2z"/>
	<path class="st0" d="M18.66,126.31c-0.1-0.01-0.21-0.01-0.31,0c2.8,2.54,5.81,4.87,8.98,6.89
		C24.25,131.14,21.35,128.83,18.66,126.31z"/>
</g>
<path class="st0" d="M132.78,89.08c-0.01,0.03-0.01,0.06-0.02,0.1c-2.28,11.09-7.2,21.22-14.06,29.71
	c-2.97,3.67-6.3,7.04-9.94,10.04c-0.12,0.11-0.25,0.2-0.38,0.3v0.01c-0.03,0.02-0.05,0.04-0.08,0.06c-0.3,0.24-0.62,0.48-0.94,0.72
	c-5.72,4.25-12.08,7.64-18.79,10.03c-0.46,0.17-0.92,0.33-1.38,0.48c-7.6,2.54-15.63,3.82-23.65,3.63
	c-11.46-0.62-22.77-3.93-33-9.04c-1.03-0.57-2.05-1.17-3.05-1.82c-0.06-0.02-0.11-0.06-0.16-0.1c-3.08-2.06-5.98-4.37-8.67-6.89
	c0.32,0,0.64,0.03,0.95,0.08c0.96,0.13,1.91,0.45,2.86,0.89c6.41,2.71,12.44,6.31,19.53,7.33c8.19,1.21,16.68-0.17,24.06-3.9
	c0.59-0.3,1.82-0.92,2.89-1.46c0.51-0.26,0.99-0.5,1.34-0.68c0.12-0.07,0.23-0.12,0.32-0.17c-1.12-0.83-2.63-1.98-4.25-3.19
	c-2.85-2.14-6.04-4.51-8.05-5.85l-1.83-1.3c-0.22-0.16-0.47-0.41-0.72-0.69c0.49,0.06,0.98,0.14,1.52,0.19
	c4.63,0.39,8.81,1.99,13.33,3.18c6.05,1.57,12.23,2.07,18.36,2.93c1.42,0.15,3.31,0.63,4.77,0.44c0.94-0.09,1.77-0.5,2.52-1.03
	c0.37-0.24,0.71-0.52,1.05-0.8c0.24-0.19,0.47-0.39,0.7-0.58c0.1-0.08,0.2-0.16,0.29-0.24c3.49-2.9,6.64-6.2,9.35-9.83
	c0.11-0.15,0.22-0.3,0.32-0.45c1.09-1.48,2.1-3.01,3.03-4.59c0.01-0.02,0.02-0.03,0.03-0.05c3.87-5.92,6.68-12.52,8.38-19.87
	c0.49-2.15,0.2-3.86-0.92-5.71c-5.31-8.85-12.87-15.02-22.25-19.1c-0.38-0.16-0.74-0.35-1.11-0.53c0.05-0.11,0.11-0.21,0.16-0.31
	c9.69,2.24,18.09,6.87,25.32,14.16c0.04-0.74,0.09-1.16,0.09-1.59c-0.09-10.44-2.8-20.17-8.05-29.19c-0.34-0.58-0.91-1.12-1.5-1.47
	c-8.73-5.18-18.16-8.43-28.17-10.02c-2.03-0.33-4.08-0.56-6.12-0.83c10.5-0.44,20.61,1.49,30.8,5.12c-0.37-0.54-0.49-0.73-0.62-0.9
	c-6.55-7.92-14.57-13.87-24-17.92c-0.48-0.21-1.04-0.3-1.57-0.33c-6.22-0.34-12.42,0.01-18.57,1c-8.39,1.36-16.75,2.88-25.12,4.33
	c-0.57,0.1-1.15,0.16-1.72,0.24c-0.01-0.12-0.03-0.25-0.04-0.37c12.37-2.56,24.45-6.45,37.07-8c-0.31-0.22-0.62-0.36-0.95-0.43
	c-19.52-4.14-37.43-0.57-53.63,11.19c-0.72,0.52-1.33,0.8-2.22,0.18c6.94-5.58,14.61-9.67,22.93-12.64
	c0.19-0.07,0.15-0.35-0.05-0.36c-2.29-0.11-4.58-0.21-6.88-0.33c-2.24-0.1-4.49-0.2-6.73-0.31c0.02-0.06,0.03-0.13,0.04-0.2
	c2.88-0.15,5.75-0.29,8.63-0.45c5.34-0.27,10.69-0.55,16.04-0.83c0.06-0.31,0.05-0.27,0.12-0.59c-1.79-0.86-3.59-1.73-5.47-2.64
	c-0.37-0.17-0.74-0.35-1.11-0.53c0.65,0.08,1.19,0.06,1.67,0.23c0.08,0.03,0.15,0.05,0.23,0.08c2.34,0.81,4.66,1.68,7,2.47
	c0.74,0.25,1.57,0.47,2.32,0.4c12.48-1.14,24.5,0.6,36.07,5.44c0.35,0.14,0.72,0.24,1.08,0.36c-2.57-3.93-5.65-6.7-9.11-8.63
	c-5.53-3.09-12.04-4.02-18.95-4.08c0.3-0.16,0.59-0.27,0.88-0.26c3.77,0.07,7.59-0.22,11.3,0.31c6.31,0.89,11.66,3.27,15.9,7.27
	c2.26,2.13,4.21,4.73,5.81,7.81c0.25,0.48,0.72,0.89,1.17,1.22c3.69,2.65,7.39,5.27,11.09,7.9c0.2,0.14,0.41,0.27,0.54,0.36
	c-0.26-2.04-0.58-4.07-0.83-6.1c-0.12-0.99-0.23-1.98-0.3-2.98c-0.22-3.03,0.35-6,1.6-8.82c0.14,0.38,0.18,0.77,0.08,1.11
	c-1.12,3.81-0.66,7.59,0.35,11.32c0.12,0.42,0.24,0.84,0.36,1.26c1.14,3.85,2.72,7.53,5.15,10.81c2.45,3.32,4.84,6.7,7.25,10.05
	c0.28,0.38,0.5,0.79,0.97,1.54c0.12-1.48,0.3-2.9,0.55-4.28c0.73-4,2.1-7.6,4.63-10.78c0.06,0.34,0.02,0.67-0.14,0.92
	c-2.08,3.31-2.97,6.99-2.91,10.8c0.01,0.74,0.01,1.49,0.02,2.25c0.03,2.58,0.15,5.2,1.04,7.46
	C133.35,64.75,134.81,76.83,132.78,89.08z"/>
<path class="st0" d="M27.33,133.2c-3.17-2.02-6.18-4.35-8.98-6.89c0.1-0.01,0.21-0.01,0.31,0C21.35,128.83,24.25,131.14,27.33,133.2
	z"/>
<path class="st0" d="M108.3,129.3c-0.3,0.25-0.61,0.5-0.92,0.74c0-0.01-0.01-0.01-0.02-0.02C107.68,129.78,108,129.54,108.3,129.3z"
	/>
<path class="st0" d="M108.3,129.3c-0.3,0.25-0.61,0.5-0.92,0.74c0-0.01-0.01-0.01-0.02-0.02C107.68,129.78,108,129.54,108.3,129.3z"
	/>
<g>
	<path class="st0" d="M75.97,31.97L75.97,31.97c-3.76,2.65-8.95,1.75-11.6-2l0,0l0,0C68.13,27.32,73.32,28.22,75.97,31.97
		L75.97,31.97z"/>
	<path class="st0" d="M103.85,60.87L103.85,60.87c-4.6,0-8.32-3.73-8.32-8.32v0h0C100.12,52.55,103.85,56.28,103.85,60.87
		L103.85,60.87z"/>
	<path class="st0" d="M94.08,60.86L94.08,60.86c-3.76,2.65-8.95,1.75-11.6-2v0l0,0C86.24,56.21,91.43,57.11,94.08,60.86L94.08,60.86
		z"/>
	<path class="st0" d="M111.09,45.06L111.09,45.06c-1.61,1.61-4.21,1.61-5.82,0v0c-0.19-0.19-0.19-0.5,0-0.69l0,0
		c1.61-1.61,4.21-1.61,5.82,0v0C111.28,44.56,111.28,44.87,111.09,45.06z"/>
	<path class="st0" d="M83.85,20.79L83.85,20.79c-1.61,1.61-4.21,1.61-5.82,0l0,0c-0.19-0.19-0.19-0.5,0-0.69l0,0
		c1.61-1.61,4.21-1.61,5.82,0l0,0C84.04,20.29,84.04,20.6,83.85,20.79z"/>
	<path class="st0" d="M54.95,18.09L54.95,18.09c-1.61,1.61-4.21,1.61-5.82,0l0,0c-0.19-0.19-0.19-0.5,0-0.69l0,0
		c1.61-1.61,4.21-1.61,5.82,0l0,0C55.14,17.59,55.14,17.9,54.95,18.09z"/>
	<path class="st0" d="M66.4,21.45L66.4,21.45c-1.61,1.61-4.21,1.61-5.82,0l0,0c-0.19-0.19-0.19-0.5,0-0.69l0,0
		c1.61-1.61,4.21-1.61,5.82,0v0C66.59,20.95,66.59,21.26,66.4,21.45z"/>
	<path class="st0" d="M43.36,25.44L43.36,25.44c-1.61,1.61-4.21,1.61-5.82,0l0,0c-0.19-0.19-0.19-0.5,0-0.69l0,0
		c1.61-1.61,4.21-1.61,5.82,0v0C43.55,24.94,43.55,25.25,43.36,25.44z"/>
	<path class="st0" d="M72.77,9.09L72.77,9.09c-1.61,1.61-4.21,1.61-5.82,0l0,0c-0.19-0.19-0.19-0.5,0-0.69l0,0
		c1.61-1.61,4.21-1.61,5.82,0v0C72.96,8.59,72.96,8.9,72.77,9.09z"/>
	<path class="st0" d="M84.79,10.54L84.79,10.54c-1.61,1.61-4.21,1.61-5.82,0v0c-0.19-0.19-0.19-0.5,0-0.69l0,0
		c1.61-1.61,4.21-1.61,5.82,0l0,0C84.98,10.04,84.98,10.35,84.79,10.54z"/>
	<path class="st0" d="M103.24,34.22L103.24,34.22c-2.06,0.95-4.51,0.05-5.46-2.01v0c-0.11-0.25-0.01-0.54,0.24-0.65l0,0
		c2.06-0.95,4.51-0.05,5.46,2.01v0C103.59,33.82,103.48,34.11,103.24,34.22z"/>
	<path class="st0" d="M79.45,8.53L79.45,8.53c-2.06,0.95-4.51,0.05-5.46-2.01v0c-0.11-0.25-0.01-0.54,0.24-0.65l0,0
		c2.06-0.95,4.51-0.05,5.46,2.01v0C79.8,8.12,79.7,8.41,79.45,8.53z"/>
	<path class="st0" d="M118.55,72.24L118.55,72.24c-1.97-1.14-2.64-3.65-1.51-5.62h0c0.14-0.23,0.43-0.31,0.67-0.18l0,0
		c1.97,1.14,2.64,3.65,1.51,5.62l0,0C119.09,72.3,118.79,72.38,118.55,72.24z"/>
	<path class="st0" d="M123.97,36.96L123.97,36.96c1.78,1.41,2.08,4,0.66,5.78v0c-0.17,0.21-0.48,0.25-0.69,0.08l0,0
		c-1.78-1.41-2.08-4-0.66-5.78v0C123.45,36.83,123.76,36.79,123.97,36.96z"/>
	<path class="st0" d="M123.62,30.96L123.62,30.96c2.23,0.43,3.7,2.58,3.27,4.82v0c-0.05,0.27-0.31,0.44-0.57,0.39h0
		c-2.23-0.43-3.7-2.58-3.27-4.82v0C123.1,31.09,123.35,30.91,123.62,30.96z"/>
	<path class="st0" d="M103.85,40.3L103.85,40.3c-1.43,4.37-6.14,6.75-10.51,5.31l0,0l0,0C94.78,41.24,99.48,38.87,103.85,40.3
		L103.85,40.3z"/>
	<path class="st0" d="M96.41,38.54L96.41,38.54c-3.23,3.27-8.5,3.31-11.77,0.08l0,0l0,0C87.86,35.35,93.13,35.32,96.41,38.54
		L96.41,38.54z"/>
	<path class="st0" d="M83.33,34.46L83.33,34.46c-1.78,4.24-6.65,6.24-10.89,4.46l0,0v0C74.21,34.68,79.09,32.68,83.33,34.46
		L83.33,34.46z"/>
	<path class="st0" d="M129.89,53.11L129.89,53.11c4.24-1.78,6.24-6.65,4.46-10.89l-0.82-1.97v0c-4.24,1.78-6.24,6.65-4.46,10.89
		L129.89,53.11z"/>
	<path class="st0" d="M98.33,64.29L98.33,64.29c-2.17,4.05-7.21,5.58-11.27,3.41h0v0C89.23,63.65,94.27,62.12,98.33,64.29
		L98.33,64.29z"/>
	<path class="st0" d="M128.84,39.7L128.84,39.7c2.36,0.25,4.48-1.47,4.73-3.83v0l0,0C131.2,35.61,129.08,37.33,128.84,39.7
		L128.84,39.7z"/>
	<path class="st0" d="M129.98,35.21L129.98,35.21c1.22,0.13,2.31-0.76,2.44-1.98v0l0,0C131.2,33.1,130.11,33.99,129.98,35.21
		L129.98,35.21z"/>
	<path class="st0" d="M128.76,32.62L128.76,32.62c0.73-0.99,0.52-2.37-0.46-3.1v0v0C127.57,30.5,127.78,31.89,128.76,32.62
		L128.76,32.62z"/>
	<path class="st0" d="M106.32,19.24L106.32,19.24c2.15,0.72,3.31,3.06,2.59,5.21v0c-0.09,0.26-0.36,0.39-0.62,0.31l0,0
		c-2.15-0.72-3.31-3.06-2.59-5.21l0,0C105.79,19.29,106.07,19.15,106.32,19.24z"/>
	<path class="st0" d="M99.81,12.82L99.81,12.82c1.52,1.69,1.39,4.29-0.3,5.81l0,0c-0.2,0.18-0.51,0.17-0.69-0.04l0,0
		c-1.52-1.69-1.39-4.29,0.3-5.81v0C99.32,12.6,99.63,12.62,99.81,12.82z"/>
	<path class="st0" d="M103.95,13.72L103.95,13.72c2.25-0.36,4.36,1.17,4.71,3.42v0c0.04,0.27-0.14,0.52-0.41,0.56l0,0
		c-2.25,0.36-4.36-1.17-4.71-3.42v0C103.51,14.01,103.69,13.76,103.95,13.72z"/>
	<path class="st0" d="M109.36,13.52L109.36,13.52c0.35-1.17-0.32-2.41-1.49-2.76v0l0,0C107.51,11.94,108.18,13.17,109.36,13.52
		L109.36,13.52z"/>
	<path class="st0" d="M115.62,18.97L115.62,18.97c-2.15,0.72-3.31,3.06-2.59,5.21v0c0.09,0.26,0.36,0.39,0.62,0.31l0,0
		c2.15-0.72,3.31-3.06,2.59-5.21v0C116.15,19.02,115.88,18.89,115.62,18.97z"/>
	<path class="st0" d="M116.21,14.12L116.21,14.12c-2.25-0.36-4.36,1.17-4.71,3.42v0c-0.04,0.27,0.14,0.52,0.41,0.56l0,0
		c2.25,0.36,4.36-1.17,4.71-3.42v0C116.66,14.41,116.48,14.16,116.21,14.12z"/>
	<path class="st0" d="M112.59,13.26L112.59,13.26c-0.35-1.17,0.32-2.41,1.49-2.76l0,0v0C114.43,11.67,113.76,12.91,112.59,13.26
		L112.59,13.26z"/>
	<path class="st0" d="M131,31.14L131,31.14c2.36,0.25,4.48-1.47,4.73-3.83v0v0C133.37,27.06,131.25,28.78,131,31.14L131,31.14z"/>
	<path class="st0" d="M111.69,9.67L111.69,9.67c2.36,0.25,4.48-1.47,4.73-3.83v0l0,0C114.06,5.59,111.94,7.31,111.69,9.67
		L111.69,9.67z"/>
	
		<ellipse transform="matrix(0.1043 -0.9945 0.9945 0.1043 21.3713 176.0347)" class="st0" cx="108.42" cy="76.15" rx="2.04" ry="4.59"/>
	
		<ellipse transform="matrix(0.1043 -0.9945 0.9945 0.1043 44.927 106.0206)" class="st0" cx="81.33" cy="28.07" rx="2.04" ry="4.59"/>
	
		<ellipse transform="matrix(0.2205 -0.9754 0.9754 0.2205 35.7213 86.9084)" class="st0" cx="72.23" cy="21.11" rx="2.04" ry="4.59"/>
	
		<ellipse transform="matrix(0.6219 -0.7831 0.7831 0.6219 12.1906 83.5336)" class="st0" cx="92.61" cy="29.14" rx="2.04" ry="4.59"/>
	
		<ellipse transform="matrix(0.9916 -0.1292 0.1292 0.9916 -7.2081 15.1796)" class="st0" cx="113.37" cy="63.13" rx="2.04" ry="4.59"/>
	
		<ellipse transform="matrix(0.9916 -0.1292 0.1292 0.9916 -6.9192 14.4084)" class="st0" cx="107.57" cy="60.52" rx="1.5" ry="3.01"/>
	<ellipse transform="matrix(0.8913 -0.4534 0.4534 0.8913 6.085 43.7868)" class="st0" cx="94.38" cy="9.2" rx="1.5" ry="3.01"/>
	
		<ellipse transform="matrix(0.5525 -0.8335 0.8335 0.5525 34.5491 75.8517)" class="st0" cx="87.92" cy="5.75" rx="0.96" ry="2.46"/>
	
		<ellipse transform="matrix(0.5641 -0.8257 0.8257 0.5641 -16.3752 129.9542)" class="st0" cx="114.89" cy="80.49" rx="1.5" ry="3.01"/>
	
		<ellipse transform="matrix(0.5641 -0.8257 0.8257 0.5641 27.3457 78.0257)" class="st0" cx="87.57" cy="13.11" rx="0.88" ry="1.76"/>
	<ellipse transform="matrix(0.972 -0.2352 0.2352 0.972 -3.4303 10.9712)" class="st0" cx="44.28" cy="19.87" rx="1.76" ry="0.88"/>
	<ellipse transform="matrix(0.972 -0.2352 0.2352 0.972 -3.4711 6.5919)" class="st0" cx="25.9" cy="17.85" rx="1.76" ry="0.88"/>
	<ellipse transform="matrix(0.972 -0.2352 0.2352 0.972 -4.7241 8.6035)" class="st0" cx="33.71" cy="24.11" rx="1.76" ry="0.88"/>
	<ellipse transform="matrix(0.972 -0.2352 0.2352 0.972 -4.4365 5.4558)" class="st0" cx="20.66" cy="21.33" rx="1.76" ry="0.88"/>
	<ellipse transform="matrix(0.5641 -0.8257 0.8257 0.5641 26.7143 54.99)" class="st0" cx="65.44" cy="2.19" rx="0.47" ry="1.53"/>
	<ellipse transform="matrix(0.9786 -0.2057 0.2057 0.9786 0.3829 13.2232)" class="st0" cx="63.8" cy="4.77" rx="1.53" ry="0.47"/>
	<ellipse transform="matrix(0.5641 -0.8257 0.8257 0.5641 32.5388 70.2268)" class="st0" cx="82.78" cy="4.3" rx="0.55" ry="1.09"/>
	
		<ellipse transform="matrix(0.5641 -0.8257 0.8257 0.5641 25.0259 53.1932)" class="st0" cx="62.89" cy="2.89" rx="0.55" ry="1.09"/>
	<ellipse transform="matrix(0.5641 -0.8257 0.8257 0.5641 13.2405 37.985)" class="st0" cx="42.6" cy="6.45" rx="0.55" ry="1.09"/>
	
		<ellipse transform="matrix(0.1526 -0.9883 0.9883 0.1526 24.3932 72.3818)" class="st0" cx="54.41" cy="21.97" rx="0.98" ry="1.96"/>
	
		<ellipse transform="matrix(0.1526 -0.9883 0.9883 0.1526 19.3978 55.5584)" class="st0" cx="42.1" cy="16.47" rx="0.98" ry="1.96"/>
	<ellipse transform="matrix(0.908 -0.4189 0.4189 0.908 -5.0793 23.3936)" class="st0" cx="50.74" cy="23.27" rx="0.98" ry="1.96"/>
	
		<ellipse transform="matrix(0.7423 -0.6701 0.6701 0.7423 -4.1563 37.4111)" class="st0" cx="46.56" cy="24.11" rx="1.96" ry="0.98"/>
	
		<ellipse transform="matrix(0.9437 -0.3307 0.3307 0.9437 -2.2432 16.8548)" class="st0" cx="48.41" cy="15.02" rx="1.96" ry="0.98"/>
	
		<ellipse transform="matrix(0.7423 -0.6701 0.6701 0.7423 -10.0196 22.1666)" class="st0" cx="23.81" cy="24.11" rx="1.96" ry="0.98"/>
	
		<ellipse transform="matrix(0.7423 -0.6701 0.6701 0.7423 -4.6314 27.2534)" class="st0" cx="33.11" cy="19.65" rx="1.96" ry="0.98"/>
	
		<ellipse transform="matrix(0.9978 -0.0656 0.0656 0.9978 -0.8604 2.2676)" class="st0" cx="34.12" cy="14.24" rx="1.96" ry="0.98"/>
	
		<ellipse transform="matrix(0.5641 -0.8257 0.8257 0.5641 12.4452 43.7624)" class="st0" cx="47.67" cy="10.09" rx="0.55" ry="1.09"/>
	
		<ellipse transform="matrix(0.5641 -0.8257 0.8257 0.5641 11.3635 41.7133)" class="st0" cx="45.19" cy="10.09" rx="0.55" ry="1.09"/>
	
		<ellipse transform="matrix(0.5641 -0.8257 0.8257 0.5641 3.8382 29.5354)" class="st0" cx="29.89" cy="11.13" rx="0.55" ry="1.09"/>
	
		<ellipse transform="matrix(0.8699 -0.4932 0.4932 0.8699 -2.0525 14.7077)" class="st0" cx="26.85" cy="11.24" rx="1.09" ry="0.55"/>
	
		<ellipse transform="matrix(0.5641 -0.8257 0.8257 0.5641 -4.1744 33.7655)" class="st0" cx="29.89" cy="20.84" rx="0.55" ry="1.09"/>
	
		<ellipse transform="matrix(0.5641 -0.8257 0.8257 0.5641 0.6606 32.1885)" class="st0" cx="30.82" cy="15.47" rx="0.55" ry="1.09"/>
	
		<ellipse transform="matrix(0.6338 -0.7735 0.7735 0.6338 -7.0961 29.3762)" class="st0" cx="27.48" cy="22.18" rx="1.09" ry="0.55"/>
	<ellipse transform="matrix(0.6338 -0.7735 0.7735 0.6338 -6.763 25.4513)" class="st0" cx="23.5" cy="19.87" rx="1.09" ry="0.55"/>
	
		<ellipse transform="matrix(0.5641 -0.8257 0.8257 0.5641 6.7148 43.5027)" class="st0" cx="44.56" cy="15.39" rx="0.55" ry="1.09"/>
	
		<ellipse transform="matrix(0.5641 -0.8257 0.8257 0.5641 0.2085 42.2897)" class="st0" cx="40.16" cy="20.95" rx="0.55" ry="1.09"/>
	
		<ellipse transform="matrix(0.5641 -0.8257 0.8257 0.5641 -11.9894 24.6205)" class="st0" cx="17.32" cy="23.67" rx="0.55" ry="1.09"/>
	
		<ellipse transform="matrix(0.5641 -0.8257 0.8257 0.5641 2.9307 39.7665)" class="st0" cx="39.13" cy="17.11" rx="0.55" ry="1.09"/>
	
		<ellipse transform="matrix(0.7503 -0.6611 0.6611 0.7503 -5.3047 29.8883)" class="st0" cx="36.91" cy="21.97" rx="1.09" ry="0.55"/>
	
		<ellipse transform="matrix(0.7503 -0.6611 0.6611 0.7503 -2.627 28.5411)" class="st0" cx="36.47" cy="17.75" rx="1.09" ry="0.55"/>
	
		<ellipse transform="matrix(0.2156 -0.9765 0.9765 0.2156 6.3513 41.4684)" class="st0" cx="28.99" cy="16.78" rx="1.09" ry="0.55"/>
	
		<ellipse transform="matrix(0.5641 -0.8257 0.8257 0.5641 8.3648 57.5172)" class="st0" cx="58.66" cy="20.84" rx="0.55" ry="1.09"/>
	
		<ellipse transform="matrix(0.5641 -0.8257 0.8257 0.5641 11.1515 49.6089)" class="st0" cx="52.56" cy="14.24" rx="0.55" ry="1.09"/>
	
		<ellipse transform="matrix(0.3119 -0.9501 0.9501 0.3119 -10.6207 37.611)" class="st0" cx="20.66" cy="26.14" rx="1.09" ry="0.55"/>
	<ellipse transform="matrix(0.5641 -0.8257 0.8257 0.5641 7.4751 35.7494)" class="st0" cx="37.6" cy="10.8" rx="0.55" ry="1.09"/>
	
		<ellipse transform="matrix(0.5641 -0.8257 0.8257 0.5641 24.6539 67.0926)" class="st0" cx="75.87" cy="10.2" rx="0.55" ry="1.09"/>
	<ellipse transform="matrix(0.5641 -0.8257 0.8257 0.5641 26.9684 61.6877)" class="st0" cx="71.91" cy="5.3" rx="0.55" ry="1.09"/>
	<ellipse transform="matrix(0.6631 -0.7486 0.7486 0.6631 19.3126 53.5113)" class="st0" cx="69.1" cy="5.3" rx="1.09" ry="0.55"/>
	<ellipse transform="matrix(0.908 -0.4189 0.4189 0.908 4.0885 28.3872)" class="st0" cx="66.7" cy="4.88" rx="1.55" ry="0.74"/>
	
		<ellipse transform="matrix(0.5641 -0.8257 0.8257 0.5641 27.9974 57.7713)" class="st0" cx="68.71" cy="2.37" rx="0.55" ry="1.09"/>
	<ellipse transform="matrix(0.4125 -0.911 0.911 0.4125 39.5943 66.3516)" class="st0" cx="71.24" cy="2.48" rx="0.55" ry="1.09"/>
	<ellipse transform="matrix(0.7071 -0.7071 0.7071 0.7071 19.7584 52.8843)" class="st0" cx="73.72" cy="2.59" rx="0.4" ry="0.98"/>
	
		<ellipse transform="matrix(0.5641 -0.8257 0.8257 0.5641 16.4925 49.6765)" class="st0" cx="55.29" cy="9.22" rx="0.47" ry="1.53"/>
	
		<ellipse transform="matrix(0.5641 -0.8257 0.8257 0.5641 17.6846 51.9345)" class="st0" cx="58.03" cy="9.22" rx="0.55" ry="1.09"/>
	<ellipse transform="matrix(0.7071 -0.7071 0.7071 0.7071 9.2165 34.6594)" class="st0" cx="46.45" cy="6.2" rx="0.82" ry="2.03"/>
	<ellipse transform="matrix(0.7071 -0.7071 0.7071 0.7071 9.1998 38.8001)" class="st0" cx="51.44" cy="8.29" rx="0.95" ry="1.45"/>
	<ellipse transform="matrix(0.4125 -0.911 0.911 0.4125 27.9799 61.2264)" class="st0" cx="61.46" cy="8.92" rx="0.55" ry="1.09"/>
	<ellipse transform="matrix(0.7071 -0.7071 0.7071 0.7071 12.339 47.8551)" class="st0" cx="63.94" cy="9.03" rx="0.4" ry="0.98"/>
	<ellipse transform="matrix(0.444 -0.896 0.896 0.444 16.6601 61.0648)" class="st0" cx="57.54" cy="17.11" rx="0.55" ry="1.09"/>
	<ellipse transform="matrix(0.444 -0.896 0.896 0.444 22.0861 66.3001)" class="st0" cx="64.47" cy="15.35" rx="0.55" ry="1.09"/>
	<ellipse transform="matrix(0.282 -0.9594 0.9594 0.282 28.3389 69.2796)" class="st0" cx="60.46" cy="15.71" rx="0.98" ry="2.2"/>
	<ellipse transform="matrix(0.282 -0.9594 0.9594 0.282 14.2182 39.8635)" class="st0" cx="33.74" cy="10.43" rx="0.98" ry="2.2"/>
	<ellipse transform="matrix(0.282 -0.9594 0.9594 0.282 19.9242 46.8134)" class="st0" cx="41.24" cy="10.09" rx="0.98" ry="2.2"/>
	<ellipse transform="matrix(0.6258 -0.78 0.78 0.6258 26.7822 60.5638)" class="st0" cx="76.51" cy="2.37" rx="0.71" ry="1.81"/>
	
		<ellipse transform="matrix(0.7423 -0.6701 0.6701 0.7423 18.3179 54.5819)" class="st0" cx="80.11" cy="3.48" rx="0.55" ry="1.09"/>
	
		<ellipse transform="matrix(0.3119 -0.9501 0.9501 0.3119 4.5149 146.1742)" class="st0" cx="103.18" cy="69.97" rx="2.04" ry="4.59"/>
</g>
</svg>
